<svg width="195" height="54" viewBox="0 0 195 54" fill="none" xmlns="http://www.w3.org/2000/svg">
<g clip-path="url(#clip0_110_2677)">
<path d="M19.9664 8.42737H4.53781C1.491 8.42737 0 7.06603 0 4.27851C0 3.2413 0.129652 2.39856 0.453781 1.55582C0.777911 0.777911 0.972389 0.259304 1.16687 0H45.1837C48.2305 0 49.7215 1.36134 49.7215 4.14886C49.7215 5.12125 49.5918 6.02881 49.2677 6.80672C49.0084 7.58463 48.7491 8.10324 48.5546 8.36254H29.1717V52.898H19.9664V8.42737Z" fill="white"/>
<path d="M194.089 52.7683C193.57 52.898 192.792 52.9628 191.69 53.0924C190.588 53.2221 189.292 53.3517 187.801 53.4814C186.31 53.611 184.624 53.7407 182.809 53.8055C180.929 53.9352 179.049 53.9352 177.04 53.9352C173.021 53.9352 169.779 53.611 167.186 52.8979C164.658 52.1849 162.648 51.2773 161.157 50.1104C159.666 48.9436 158.694 47.647 158.175 46.0912C157.657 44.6002 157.397 43.0444 157.397 41.4238C157.397 39.2845 157.722 37.4694 158.37 35.8487C159.018 34.2281 160.055 32.9316 161.546 31.8295C163.037 30.7275 164.917 29.9496 167.316 29.431C169.65 28.9124 172.567 28.6531 175.938 28.6531C177.882 28.6531 179.762 28.7179 181.513 28.8475C183.263 28.9772 184.56 29.1068 185.467 29.1717C185.467 27.3565 185.143 25.8655 184.56 24.6987C183.976 23.5318 183.133 22.5594 182.096 21.9112C181.059 21.2629 179.827 20.8091 178.401 20.5498C176.975 20.2905 175.354 20.1609 173.604 20.1609C170.687 20.1609 168.288 20.485 166.538 21.1332C164.788 21.7815 163.621 22.3649 163.037 22.8187C162.713 22.5594 162.324 22.0408 161.741 21.3277C161.222 20.6146 160.963 19.7071 160.963 18.7347C160.963 18.0216 161.157 17.3085 161.546 16.5954C161.935 15.8823 162.584 15.2989 163.621 14.7155C164.593 14.1969 165.89 13.7431 167.575 13.419C169.196 13.0948 171.335 12.9652 173.798 12.9652C176.845 12.9652 179.568 13.2893 182.096 13.8727C184.56 14.4562 186.764 15.4286 188.514 16.6603C190.329 17.9568 191.69 19.6422 192.728 21.7815C193.7 23.9208 194.219 26.449 194.219 29.431V52.7683H194.089ZM185.402 35.6543C184.884 35.5246 183.911 35.395 182.485 35.2005C181.059 35.006 178.92 34.8763 176.132 34.8763C172.632 34.8763 170.103 35.395 168.483 36.4322C166.862 37.4694 166.084 39.1549 166.084 41.4238C166.084 42.3313 166.279 43.1741 166.603 43.952C166.927 44.7299 167.51 45.3781 168.353 45.8968C169.196 46.4154 170.298 46.8691 171.724 47.1284C173.15 47.3877 174.9 47.5822 177.04 47.5822C179.373 47.5822 181.253 47.5174 182.68 47.3229C184.041 47.1284 185.013 46.9988 185.467 46.8691V35.6543H185.402Z" fill="white"/>
<path d="M145.599 25.3469C144.626 22.8836 143.2 20.6795 141.45 18.8643C139.7 17.0492 137.625 15.623 135.227 14.6507C132.828 13.6783 130.235 13.1597 127.383 13.1597C124.466 13.1597 121.873 13.7431 119.604 14.91C117.335 16.0768 115.584 17.4382 114.288 19.1236V7.77911V1.68547V0H100.091H98.4704C98.3408 0.259304 98.0815 0.777911 97.7573 1.55582C97.4332 2.33373 97.3036 3.2413 97.3036 4.21369C97.3036 7.0012 98.7946 8.36254 101.841 8.36254H105.472V26.9676L95.294 35.006L94.2567 35.7839C94.3216 35.0708 94.3864 34.2929 94.3864 33.515C94.3864 30.5978 93.8678 27.8751 92.7658 25.3469C91.6637 22.8836 90.1727 20.6795 88.2928 18.8643C86.4128 17.0492 84.1439 15.623 81.5509 14.5858C78.9578 13.5486 76.1703 13.03 73.1883 13.03C70.2063 13.03 67.4188 13.5486 64.8258 14.5858C62.2327 15.623 59.9638 17.0492 58.0839 18.8643C56.2039 20.6795 54.7129 22.8187 53.6109 25.3469C52.5088 27.8103 51.9902 30.533 51.9902 33.515C51.9902 36.3673 52.5088 39.09 53.6109 41.5534C54.7129 44.0168 56.2039 46.2209 58.0839 48.036C59.9638 49.8511 62.2327 51.2773 64.8258 52.3794C67.4188 53.4166 70.2063 53.9352 73.1883 53.9352C76.1703 53.9352 78.9578 53.4166 81.5509 52.3794C83.8846 51.407 85.8942 50.1753 87.7093 48.6194L87.7741 48.6843L99.1835 40.1921L105.601 35.1357C105.796 37.4694 106.25 39.6086 106.963 41.4886C108 44.2761 109.426 46.6098 111.306 48.425C113.186 50.3049 115.325 51.6663 117.918 52.5738C120.446 53.4814 123.234 53.9352 126.281 53.9352C129.328 53.9352 132.115 53.4166 134.643 52.3794C137.172 51.3421 139.376 49.916 141.256 48.1657C143.135 46.3505 144.562 44.2113 145.599 41.6831C146.636 39.1549 147.155 36.4322 147.155 33.515C147.09 30.5978 146.636 27.8103 145.599 25.3469ZM77.9854 45.2485C76.4944 45.8968 74.8738 46.2209 73.1235 46.2209C71.3084 46.2209 69.6877 45.8968 68.1967 45.2485C66.7057 44.6002 65.474 43.6927 64.4368 42.5258C63.3996 41.3589 62.5569 40.0624 61.9734 38.5066C61.39 37.0156 61.0659 35.3301 61.0659 33.515C61.0659 31.6999 61.39 30.0144 61.9734 28.4586C62.5569 26.9028 63.3996 25.5414 64.4368 24.4394C65.474 23.3373 66.7705 22.4298 68.1967 21.7815C69.6877 21.1333 71.3084 20.8091 73.1235 20.8091C74.8738 20.8091 76.4944 21.1333 77.9854 21.7815C79.4764 22.4298 80.7729 23.3373 81.8102 24.4394C82.8474 25.5414 83.6901 26.9028 84.2735 28.4586C84.857 30.0144 85.1811 31.6999 85.1811 33.515C85.1811 35.3301 84.857 36.9508 84.2735 38.5066C83.6901 39.9976 82.8474 41.3589 81.8102 42.5258C80.7729 43.6927 79.4764 44.6002 77.9854 45.2485ZM137.172 38.5066C136.588 39.9976 135.81 41.3589 134.773 42.461C133.736 43.563 132.439 44.4706 131.013 45.054C129.522 45.7023 127.966 46.0264 126.216 46.0264C124.466 46.0264 122.845 45.7023 121.419 45.1188C119.928 44.4706 118.696 43.6278 117.659 42.5906C116.622 41.4886 115.779 40.1921 115.196 38.6363C114.612 37.0804 114.288 35.395 114.288 33.515C114.288 31.7647 114.612 30.1441 115.196 28.5882C115.779 27.0324 116.622 25.7359 117.594 24.569C118.631 23.467 119.863 22.5594 121.354 21.9112C122.845 21.2629 124.466 20.9388 126.281 20.9388C128.031 20.9388 129.652 21.2629 131.078 21.9112C132.569 22.5594 133.801 23.4022 134.838 24.5042C135.875 25.6062 136.718 26.9028 137.236 28.4586C137.82 30.0144 138.079 31.6999 138.079 33.4502C138.014 35.395 137.755 37.0156 137.172 38.5066Z" fill="#FFF200"/>
</g>
<defs>
<clipPath id="clip0_110_2677">
<rect width="194.089" height="54" fill="white"/>
</clipPath>
</defs>
</svg>
