<svg width="144" height="40" viewBox="0 0 144 40" fill="none" xmlns="http://www.w3.org/2000/svg">
<g clip-path="url(#clip0_110_2746)">
<path d="M14.7899 6.2425H3.36134C1.10444 6.2425 0 5.23409 0 3.16927C0 2.40096 0.0960384 1.77671 0.336134 1.15246C0.57623 0.57623 0.720288 0.192077 0.864346 0H33.4694C35.7263 0 36.8307 1.0084 36.8307 3.07323C36.8307 3.79352 36.7347 4.46579 36.4946 5.04202C36.3025 5.61825 36.1104 6.0024 35.9664 6.19448H21.6086V39.1837H14.7899V6.2425Z" fill="#6526BF"/>
<path d="M143.77 39.0876C143.386 39.1836 142.809 39.2316 141.993 39.3276C141.177 39.4237 140.216 39.5197 139.112 39.6158C138.007 39.7118 136.759 39.8078 135.414 39.8559C134.022 39.9519 132.629 39.9519 131.141 39.9519C128.163 39.9519 125.762 39.7118 123.842 39.1836C121.969 38.6554 120.48 37.9831 119.376 37.1188C118.271 36.2544 117.551 35.294 117.167 34.1416C116.783 33.0371 116.591 31.8847 116.591 30.6842C116.591 29.0996 116.831 27.755 117.311 26.5545C117.791 25.3541 118.56 24.3937 119.664 23.5773C120.768 22.761 122.161 22.1848 123.938 21.8006C125.666 21.4165 127.827 21.2244 130.324 21.2244C131.765 21.2244 133.157 21.2724 134.454 21.3685C135.75 21.4645 136.711 21.5605 137.383 21.6086C137.383 20.264 137.143 19.1596 136.711 18.2952C136.279 17.4309 135.654 16.7106 134.886 16.2304C134.118 15.7502 133.205 15.4141 132.149 15.222C131.093 15.0299 129.892 14.9339 128.596 14.9339C126.435 14.9339 124.658 15.174 123.362 15.6542C122.065 16.1344 121.201 16.5665 120.768 16.9027C120.528 16.7106 120.24 16.3264 119.808 15.7982C119.424 15.27 119.232 14.5978 119.232 13.8775C119.232 13.3493 119.376 12.821 119.664 12.2928C119.952 11.7646 120.432 11.3325 121.201 10.9003C121.921 10.5161 122.881 10.18 124.13 9.93989C125.33 9.6998 126.915 9.60376 128.74 9.60376C130.997 9.60376 133.013 9.84386 134.886 10.276C136.711 10.7082 138.344 11.4285 139.64 12.3409C140.985 13.3012 141.993 14.5497 142.761 16.1344C143.482 17.719 143.866 19.5918 143.866 21.8006V39.0876H143.77ZM137.335 26.4105C136.951 26.3144 136.231 26.2184 135.174 26.0743C134.118 25.9303 132.533 25.8342 130.468 25.8342C127.875 25.8342 126.003 26.2184 124.802 26.9867C123.602 27.755 123.025 29.0035 123.025 30.6842C123.025 31.3565 123.169 31.9807 123.41 32.5569C123.65 33.1332 124.082 33.6134 124.706 33.9975C125.33 34.3817 126.147 34.7178 127.203 34.9099C128.259 35.102 129.556 35.246 131.141 35.246C132.869 35.246 134.262 35.198 135.318 35.0539C136.327 34.9099 137.047 34.8138 137.383 34.7178V26.4105H137.335Z" fill="#6526BF"/>
<path d="M107.851 18.7755C107.131 16.9508 106.074 15.3181 104.778 13.9736C103.481 12.6291 101.945 11.5726 100.168 10.8523C98.3912 10.1321 96.4704 9.7479 94.3576 9.7479C92.1967 9.7479 90.2759 10.1801 88.5953 11.0444C86.9146 11.9088 85.6181 12.9172 84.6577 14.1657V5.76231V1.2485V0H74.1415H72.941C72.845 0.192077 72.6529 0.576231 72.4128 1.15246C72.1727 1.72869 72.0767 2.40096 72.0767 3.12125C72.0767 5.18608 73.1811 6.19448 75.438 6.19448H78.1271V19.976L70.5881 25.9304L69.8198 26.5066C69.8678 25.9784 69.9158 25.4022 69.9158 24.8259C69.9158 22.6651 69.5316 20.6483 68.7153 18.7755C67.899 16.9508 66.7945 15.3181 65.402 13.9736C64.0094 12.6291 62.3288 11.5726 60.408 10.8043C58.4872 10.036 56.4224 9.65186 54.2135 9.65186C52.0046 9.65186 49.9398 10.036 48.019 10.8043C46.0983 11.5726 44.4176 12.6291 43.025 13.9736C41.6325 15.3181 40.528 16.9028 39.7117 18.7755C38.8954 20.6002 38.5112 22.6171 38.5112 24.8259C38.5112 26.9388 38.8954 28.9556 39.7117 30.7803C40.528 32.605 41.6325 34.2377 43.025 35.5822C44.4176 36.9268 46.0983 37.9832 48.019 38.7995C49.9398 39.5678 52.0046 39.952 54.2135 39.952C56.4224 39.952 58.4872 39.5678 60.408 38.7995C62.1367 38.0792 63.6253 37.1669 64.9698 36.0144L65.0178 36.0624L73.4692 29.7719L78.2231 26.0264C78.3672 27.7551 78.7033 29.3397 79.2315 30.7323C79.9998 32.7971 81.0562 34.5258 82.4488 35.8703C83.8414 37.2629 85.426 38.2713 87.3468 38.9436C89.2195 39.6158 91.2843 39.952 93.5412 39.952C95.7981 39.952 97.863 39.5678 99.7357 38.7995C101.608 38.0312 103.241 36.9748 104.634 35.6783C106.026 34.3337 107.083 32.7491 107.851 30.8764C108.619 29.0036 109.003 26.9868 109.003 24.8259C108.955 22.6651 108.619 20.6002 107.851 18.7755ZM57.7669 33.5174C56.6625 33.9976 55.462 34.2377 54.1655 34.2377C52.821 34.2377 51.6205 33.9976 50.516 33.5174C49.4116 33.0372 48.4992 32.3649 47.7309 31.5006C46.9626 30.6363 46.3384 29.6759 45.9062 28.5234C45.474 27.419 45.2339 26.1705 45.2339 24.8259C45.2339 23.4814 45.474 22.2329 45.9062 21.0804C46.3384 19.928 46.9626 18.9196 47.7309 18.1032C48.4992 17.2869 49.4596 16.6146 50.516 16.1345C51.6205 15.6543 52.821 15.4142 54.1655 15.4142C55.462 15.4142 56.6625 15.6543 57.7669 16.1345C58.8714 16.6146 59.8318 17.2869 60.6001 18.1032C61.3684 18.9196 61.9926 19.928 62.4248 21.0804C62.857 22.2329 63.0971 23.4814 63.0971 24.8259C63.0971 26.1705 62.857 27.371 62.4248 28.5234C61.9926 29.6279 61.3684 30.6363 60.6001 31.5006C59.8318 32.3649 58.8714 33.0372 57.7669 33.5174ZM101.608 28.5234C101.176 29.6279 100.6 30.6363 99.8318 31.4526C99.0634 32.2689 98.1031 32.9412 97.0466 33.3734C95.9422 33.8535 94.7897 34.0936 93.4932 34.0936C92.1967 34.0936 90.9962 33.8535 89.9398 33.4214C88.8354 32.9412 87.923 32.3169 87.1547 31.5486C86.3864 30.7323 85.7621 29.7719 85.33 28.6194C84.8978 27.467 84.6577 26.2185 84.6577 24.8259C84.6577 23.5294 84.8978 22.3289 85.33 21.1765C85.7621 20.024 86.3864 19.0636 87.1067 18.1993C87.875 17.383 88.7873 16.7107 89.8918 16.2305C90.9962 15.7503 92.1967 15.5102 93.5412 15.5102C94.8378 15.5102 96.0382 15.7503 97.0947 16.2305C98.1991 16.7107 99.1115 17.3349 99.8798 18.1513C100.648 18.9676 101.272 19.928 101.656 21.0804C102.089 22.2329 102.281 23.4814 102.281 24.7779C102.233 26.2185 102.041 27.419 101.608 28.5234Z" fill="#FFF200"/>
</g>
<defs>
<clipPath id="clip0_110_2746">
<rect width="143.77" height="40" fill="white"/>
</clipPath>
</defs>
</svg>
