<svg width="22" height="18" viewBox="0 0 22 18" fill="none" xmlns="http://www.w3.org/2000/svg">
<g clip-path="url(#clip0_110_2820)">
<path d="M12.5844 14.6455C10.9323 14.6455 9.28748 14.6455 7.63544 14.6455C6.47183 14.6455 5.79665 14.0566 5.58117 12.9073C4.88444 9.17228 4.18053 5.43006 3.4838 1.69502C3.41198 1.30716 3.39043 1.29279 2.99538 1.29279C2.22682 1.29279 1.45108 1.30716 0.682527 1.29279C0.165369 1.27842 -0.136307 0.825911 0.0648099 0.387762C0.172551 0.143548 0.373669 0.0142583 0.639431 0.00707558C1.53728 -0.000107179 2.43512 -0.0144727 3.32578 0.0142583C4.01533 0.0358066 4.53967 0.502686 4.69051 1.17787C4.8198 1.7453 4.93472 2.31274 5.0281 2.88736C5.06401 3.09566 5.15021 3.13876 5.34414 3.13876C8.23161 3.13158 11.1119 3.13158 13.9994 3.13158C15.7807 3.13158 17.562 3.12439 19.3505 3.13158C20.3992 3.13876 21.1534 3.80676 21.2683 4.81953C21.2899 5.02783 21.2683 5.25049 21.2252 5.45879C20.665 8.01586 20.0903 10.5801 19.5157 13.1372C19.3074 14.0637 18.5676 14.6312 17.5836 14.6312C15.9172 14.6455 14.2508 14.6455 12.5844 14.6455ZM5.36569 4.43166C5.51653 5.22176 5.66736 5.97595 5.79665 6.73014C6.15579 8.7485 6.51493 10.7669 6.87407 12.7852C6.94589 13.1803 7.13265 13.3455 7.53488 13.3455C10.8964 13.3455 14.2579 13.3455 17.6195 13.3455C18.0217 13.3455 18.2013 13.1946 18.2947 12.7924C18.8477 10.3143 19.4008 7.8291 19.9539 5.35105C20.0975 4.69024 19.882 4.43884 19.1997 4.43884C14.9619 4.43884 10.724 4.43166 6.4862 4.43166C6.12706 4.43166 5.76792 4.43166 5.36569 4.43166Z" fill="white"/>
<path d="M8.38964 15.4215C9.08637 15.4215 9.67536 16.0104 9.67536 16.7072C9.67536 17.4254 9.08637 18.0072 8.37528 18.0001C7.67137 17.9929 7.10393 17.4254 7.09675 16.7144C7.08956 15.9889 7.66418 15.4143 8.38964 15.4215Z" fill="white"/>
<path d="M18.1365 16.6857C18.1437 17.4111 17.5762 17.9929 16.858 17.9929C16.154 17.9929 15.5794 17.4327 15.5579 16.7216C15.5435 16.0177 16.1253 15.4215 16.8436 15.4143C17.5547 15.4143 18.1293 15.9817 18.1365 16.6857Z" fill="white"/>
</g>
<defs>
<clipPath id="clip0_110_2820">
<rect width="21.2825" height="18" fill="white"/>
</clipPath>
</defs>
</svg>
