<svg width="16" height="20" viewBox="0 0 16 20" fill="none" xmlns="http://www.w3.org/2000/svg">
<path d="M11.9161 4.50532C12.4222 4.50532 12.895 4.49976 13.3734 4.50532C14.3801 4.52201 15.22 5.31183 15.2979 6.30745C15.3368 6.7691 15.3535 7.23632 15.3757 7.69798C15.4814 9.97845 15.5927 12.2589 15.6983 14.5394C15.7484 15.6574 15.8096 16.7698 15.8485 17.8878C15.893 19.0836 15.0142 19.9903 13.8183 19.9958C9.89148 20.0014 5.96462 20.0014 2.0322 19.9958C0.836342 19.9958 -0.0480357 19.0836 0.00202344 17.8933C0.107704 15.5239 0.224508 13.16 0.335751 10.7961C0.396934 9.47786 0.452555 8.15963 0.519301 6.84697C0.530425 6.56887 0.541549 6.29076 0.602733 6.01822C0.797407 5.15052 1.58723 4.51644 2.48273 4.49976C2.95551 4.49419 3.42829 4.49976 3.93444 4.49976C3.84545 2.93124 4.36273 1.63526 5.66426 0.711952C6.42071 0.177988 7.27728 -0.0556212 8.20059 0.0111242C9.33526 0.0945561 10.2753 0.578461 11.0095 1.45171C11.7381 2.33053 11.9884 3.35952 11.9161 4.50532ZM7.92805 18.6665C9.88035 18.6665 11.8271 18.6665 13.7794 18.6665C14.2689 18.6665 14.5358 18.3884 14.5192 17.8989C14.5136 17.682 14.5025 17.4706 14.4969 17.2537C14.3912 15.001 14.2856 12.7484 14.1799 10.4957C14.1187 9.17194 14.0575 7.84815 13.9908 6.52437C13.9629 6.04603 13.7015 5.81242 13.2232 5.81242C12.1831 5.81798 11.143 5.82354 10.1028 5.82354C7.61101 5.8291 5.11918 5.83467 2.62735 5.84023C2.16013 5.84023 1.90983 6.06827 1.87646 6.54106C1.84309 7.08058 1.8264 7.62011 1.79859 8.16519C1.64841 11.3968 1.49267 14.6284 1.34249 17.86C1.31468 18.4106 1.57054 18.672 2.12119 18.672C4.05125 18.6665 5.99243 18.6665 7.92805 18.6665ZM5.27491 4.48863C7.05479 4.48863 8.81799 4.48863 10.5812 4.48863C10.6757 3.3484 10.342 2.39727 9.36307 1.76875C8.44532 1.18473 7.47752 1.17361 6.5542 1.73538C5.53077 2.34722 5.1748 3.31502 5.27491 4.48863Z" fill="#373737"/>
<path d="M7.92805 11.2132C6.05917 11.2077 4.45728 9.94507 4.029 8.13182C3.94557 7.77028 4.05125 7.48105 4.33492 7.32531C4.6019 7.17514 4.96344 7.21963 5.15255 7.44768C5.2471 7.55892 5.30273 7.7091 5.34722 7.85372C5.64758 8.91608 6.31503 9.59466 7.39408 9.84496C8.75124 10.1564 10.1418 9.30543 10.5089 7.96496C10.5256 7.90378 10.5367 7.84259 10.5534 7.78141C10.659 7.38094 10.9983 7.16401 11.3877 7.25301C11.7492 7.33644 11.9606 7.69798 11.8605 8.09289C11.5267 9.43892 10.7258 10.3845 9.44651 10.9184C8.9626 11.1298 8.45645 11.2188 7.92805 11.2132Z" fill="#373737"/>
</svg>
