<svg width="27" height="18" viewBox="0 0 27 18" fill="none" xmlns="http://www.w3.org/2000/svg">
<path d="M26.8429 12.8083C25.9531 9.64442 24.3981 6.71424 23.1667 3.66722C23.1307 3.58632 23.1128 3.49644 23.0678 3.37959C23.4633 3.37959 23.8138 3.37959 24.1644 3.37959C24.4161 3.37959 24.6767 3.37959 24.9284 3.34364C25.216 3.2987 25.3958 3.05601 25.3868 2.78637C25.3778 2.52571 25.1891 2.301 24.9284 2.24707C24.8205 2.22909 24.7037 2.22909 24.5868 2.22909C21.1713 2.22909 17.7647 2.22909 14.3492 2.22909C14.2503 2.22909 14.1425 2.22909 14.0166 2.22909C14.0166 1.71676 14.0166 1.24038 14.0166 0.755015C14.0166 0.638168 14.0076 0.52132 13.9807 0.413461C13.9088 0.152801 13.702 0 13.4414 0C13.1807 0 12.965 0.152801 12.9021 0.413461C12.8751 0.539296 12.8661 0.674121 12.8661 0.799957C12.8661 1.25836 12.8661 1.72575 12.8661 2.21112C12.7313 2.21112 12.6234 2.21112 12.5246 2.21112C9.12701 2.21112 5.73843 2.21112 2.34086 2.21112C2.22401 2.21112 2.10716 2.21112 1.9993 2.2201C1.72067 2.25606 1.52292 2.48076 1.51394 2.7594C1.50495 3.05601 1.68471 3.28072 1.98133 3.33465C2.10716 3.35263 2.24199 3.36161 2.37681 3.36161C2.88015 3.36161 3.37451 3.36161 3.90482 3.36161C3.85988 3.47846 3.83291 3.55936 3.80595 3.64025C2.59253 6.65132 1.3881 9.6624 0.165696 12.6555C0.0128948 13.033 -0.0320465 13.4105 0.0218831 13.806C0.345461 16.1879 2.19705 17.8957 4.65084 17.9765C6.91589 18.0574 8.89331 16.5025 9.40564 14.2734C9.54047 13.6712 9.54047 13.1049 9.28879 12.5027C8.07538 9.55454 6.9069 6.59739 5.72045 3.64025C5.6845 3.55936 5.65753 3.46947 5.62158 3.37959C8.04841 3.37959 10.4393 3.37959 12.8482 3.37959H14.0346C16.4704 3.37959 18.8793 3.37959 21.3241 3.37959C21.2792 3.50543 21.2432 3.59531 21.2072 3.69418C19.9938 6.73222 18.7804 9.77026 17.567 12.8173C17.4951 13.006 17.4412 13.2218 17.4501 13.4285C17.54 15.7115 19.2208 17.5721 21.5128 17.9406C23.706 18.3001 25.8991 16.9968 26.6811 14.8666C26.8159 14.4981 26.9597 14.1206 26.9867 13.7341C27.0137 13.5004 26.9058 13.033 26.8429 12.8083ZM4.65084 16.853C2.94307 16.8171 1.19935 15.2891 1.21732 13.824C3.57225 13.824 5.91819 13.824 8.27312 13.824C8.18324 15.1363 6.81702 16.898 4.65084 16.853ZM8.09335 12.6375C5.86426 12.6375 3.67112 12.6375 1.43304 12.6375C2.54759 9.86014 3.64416 7.1277 4.76769 4.33235C5.89123 7.1277 6.9878 9.86014 8.09335 12.6375ZM22.196 4.34134C23.3195 7.14568 24.4161 9.87811 25.5216 12.6465C23.2925 12.6465 21.0994 12.6465 18.8523 12.6465C19.9669 9.87811 21.0724 7.14568 22.196 4.34134ZM22.4836 16.853C20.2545 16.9968 18.7984 15.2261 18.6815 13.824C21.0455 13.824 23.3824 13.824 25.7283 13.824C25.8272 15.1363 24.0925 16.7452 22.4836 16.853Z" fill="#6E35BF"/>
</svg>
