<svg width="38" height="25" viewBox="0 0 38 25" fill="none" xmlns="http://www.w3.org/2000/svg">
<path d="M37.2818 17.7893C36.0459 13.395 33.8862 9.32533 32.176 5.09336C32.126 4.981 32.1011 4.85616 32.0386 4.69388C32.5879 4.69388 33.0748 4.69388 33.5616 4.69388C33.9112 4.69388 34.2732 4.69388 34.6228 4.64394C35.0222 4.58152 35.2719 4.24446 35.2594 3.86995C35.247 3.50792 34.9848 3.19583 34.6228 3.12093C34.473 3.09596 34.3107 3.09596 34.1484 3.09596C29.4046 3.09596 24.6732 3.09596 19.9294 3.09596C19.7921 3.09596 19.6423 3.09596 19.4675 3.09596C19.4675 2.38439 19.4675 1.72275 19.4675 1.04863C19.4675 0.886344 19.4551 0.724055 19.4176 0.574251C19.3177 0.212223 19.0306 0 18.6686 0C18.3066 0 18.0069 0.212223 17.9196 0.574251C17.8821 0.749023 17.8696 0.936279 17.8696 1.11105C17.8696 1.74772 17.8696 2.39687 17.8696 3.07099C17.6824 3.07099 17.5326 3.07099 17.3952 3.07099C12.6764 3.07099 7.97004 3.07099 3.25119 3.07099C3.0889 3.07099 2.92661 3.07099 2.77681 3.08348C2.38982 3.13341 2.11517 3.44551 2.10269 3.8325C2.09021 4.24446 2.33988 4.55656 2.75184 4.63146C2.92661 4.65643 3.11387 4.66891 3.30113 4.66891C4.00021 4.66891 4.68682 4.66891 5.42336 4.66891C5.36094 4.8312 5.32349 4.94355 5.28604 5.0559C3.60074 9.23795 1.92792 13.42 0.230133 17.5771C0.0179095 18.1014 -0.0445091 18.6257 0.0303932 19.175C0.479807 22.4832 3.05145 24.8551 6.45951 24.9674C9.6054 25.0798 12.3518 22.9201 13.0634 19.8241C13.2506 18.9877 13.2506 18.2013 12.9011 17.3648C11.2158 13.2702 9.59292 9.16305 7.94507 5.0559C7.89513 4.94355 7.85768 4.81871 7.80775 4.69388C11.1784 4.69388 14.499 4.69388 17.8447 4.69388H19.4925C22.8756 4.69388 26.2212 4.69388 29.6168 4.69388C29.5544 4.86865 29.5044 4.99349 29.4545 5.13081C27.7692 9.3503 26.0839 13.5698 24.3986 17.8018C24.2987 18.0639 24.2238 18.3635 24.2363 18.6507C24.3612 21.8215 26.6956 24.4057 29.879 24.9175C32.925 25.4168 35.971 23.6067 37.0571 20.6481C37.2443 20.1362 37.4441 19.6119 37.4815 19.0751C37.519 18.7505 37.3692 18.1014 37.2818 17.7893ZM6.45951 23.407C4.0876 23.357 1.66576 21.2348 1.69073 19.2C4.96146 19.2 8.21971 19.2 11.4904 19.2C11.3656 21.0226 9.46808 23.4694 6.45951 23.407ZM11.2408 17.5521C8.14481 17.5521 5.09878 17.5521 1.99034 17.5521C3.53832 13.6946 5.06133 9.89959 6.62179 6.01715C8.18226 9.89959 9.70527 13.6946 11.2408 17.5521ZM30.8277 6.02963C32.3882 9.92455 33.9112 13.7196 35.4467 17.5646C32.3507 17.5646 29.3047 17.5646 26.1838 17.5646C27.7318 13.7196 29.2673 9.92455 30.8277 6.02963ZM31.2272 23.407C28.1312 23.6067 26.1089 21.1474 25.9466 19.2C29.2298 19.2 32.4756 19.2 35.7338 19.2C35.8711 21.0226 33.4618 23.2572 31.2272 23.407Z" fill="#6E35BF"/>
</svg>
