<svg width="30" height="20" viewBox="0 0 30 20" fill="none" xmlns="http://www.w3.org/2000/svg">
<path d="M29.8254 14.2314C28.8367 10.716 27.109 7.46027 25.7408 4.07468C25.7008 3.9848 25.6808 3.88493 25.6309 3.7551C26.0703 3.7551 26.4598 3.7551 26.8493 3.7551C27.129 3.7551 27.4186 3.7551 27.6982 3.71515C28.0178 3.66522 28.2175 3.39557 28.2075 3.09596C28.1976 2.80634 27.9878 2.55666 27.6982 2.49674C27.5784 2.47677 27.4485 2.47677 27.3187 2.47677C23.5237 2.47677 19.7386 2.47677 15.9435 2.47677C15.8337 2.47677 15.7138 2.47677 15.574 2.47677C15.574 1.90751 15.574 1.3782 15.574 0.838906C15.574 0.709075 15.564 0.579244 15.5341 0.459401C15.4542 0.169778 15.2245 0 14.9349 0C14.6452 0 14.4056 0.169778 14.3356 0.459401C14.3057 0.599218 14.2957 0.749023 14.2957 0.88884C14.2957 1.39818 14.2957 1.9175 14.2957 2.45679C14.1459 2.45679 14.026 2.45679 13.9162 2.45679C10.1411 2.45679 6.37603 2.45679 2.60095 2.45679C2.47112 2.45679 2.34129 2.45679 2.22145 2.46678C1.91185 2.50673 1.69214 2.7564 1.68215 3.066C1.67216 3.39557 1.8719 3.64524 2.20147 3.70517C2.34129 3.72514 2.4911 3.73513 2.6409 3.73513C3.20017 3.73513 3.74946 3.73513 4.33869 3.73513C4.28875 3.86496 4.25879 3.95484 4.22883 4.04472C2.88059 7.39036 1.54233 10.736 0.184106 14.0617C0.0143276 14.4811 -0.0356073 14.9006 0.0243146 15.34C0.383846 17.9865 2.44116 19.8841 5.16761 19.9739C7.68432 20.0638 9.88146 18.3361 10.4507 15.8593C10.6005 15.1902 10.6005 14.561 10.3209 13.8919C8.97264 10.6162 7.67434 7.33044 6.35605 4.04472C6.31611 3.95484 6.28615 3.85497 6.2462 3.7551C8.94268 3.7551 11.5992 3.7551 14.2757 3.7551H15.594C18.3005 3.7551 20.977 3.7551 23.6934 3.7551C23.6435 3.89492 23.6036 3.99479 23.5636 4.10465C22.2154 7.48024 20.8671 10.8558 19.5189 14.2414C19.439 14.4511 19.3791 14.6908 19.3891 14.9205C19.4889 17.4572 21.3565 19.5245 23.9032 19.934C26.34 20.3335 28.7768 18.8854 29.6457 16.5185C29.7955 16.109 29.9553 15.6895 29.9852 15.2601C30.0152 15.0004 29.8953 14.4811 29.8254 14.2314ZM5.16761 18.7256C3.27008 18.6856 1.33261 16.9878 1.35258 15.36C3.96917 15.36 6.57577 15.36 9.19236 15.36C9.09249 16.8181 7.57447 18.7755 5.16761 18.7256ZM8.99262 14.0417C6.51585 14.0417 4.07903 14.0417 1.59227 14.0417C2.83065 10.9557 4.04906 7.91967 5.29744 4.81372C6.54581 7.91967 7.76422 10.9557 8.99262 14.0417ZM24.6622 4.82371C25.9105 7.93964 27.129 10.9757 28.3574 14.0517C25.8806 14.0517 23.4438 14.0517 20.947 14.0517C22.1854 10.9757 23.4138 7.93964 24.6622 4.82371ZM24.9818 18.7256C22.505 18.8854 20.8871 16.9179 20.7573 15.36C23.3838 15.36 25.9805 15.36 28.5871 15.36C28.6969 16.8181 26.7694 18.6057 24.9818 18.7256Z" fill="#373737"/>
</svg>
