<svg width="28" height="25" viewBox="0 0 28 25" fill="none" xmlns="http://www.w3.org/2000/svg">
<path d="M13.9355 4.34385C14.405 3.82498 14.8168 3.23198 15.3439 2.79546C17.5512 0.975287 20.0632 0.522301 22.7399 1.5024C25.4084 2.48249 27.0144 4.46739 27.4921 7.2759C27.9122 9.72203 27.2368 11.9046 25.499 13.6754C22.081 17.1592 18.6054 20.5937 15.1545 24.0446C14.9486 24.2505 14.7509 24.4564 14.545 24.6541C14.0673 25.1153 13.5155 25.1153 13.046 24.6458C11.7612 23.3692 10.4846 22.0927 9.20799 20.8078C6.89365 18.4935 4.58754 16.1874 2.2732 13.873C0.741282 12.3411 -0.032912 10.488 3.23599e-05 8.30542C0.0576851 4.64035 2.8662 1.52711 6.51479 1.09883C8.89502 0.818801 10.954 1.51887 12.6919 3.16609C13.0625 3.52024 13.4084 3.8991 13.7626 4.26973C13.8202 4.29444 13.8779 4.31914 13.9355 4.34385Z" fill="#6E35BF"/>
</svg>
