<svg width="24" height="20" viewBox="0 0 24 20" fill="none" xmlns="http://www.w3.org/2000/svg">
<g clip-path="url(#clip0_110_2793)">
<path d="M11.6128 2.78611C12.004 2.35371 12.3472 1.85954 12.7864 1.49578C14.6258 -0.021032 16.7192 -0.39852 18.9498 0.418227C21.1735 1.23497 22.5119 2.88906 22.91 5.22948C23.26 7.26792 22.6972 9.08672 21.249 10.5624C18.4007 13.4656 15.5043 16.3276 12.6286 19.2034C12.457 19.375 12.2922 19.5466 12.1207 19.7113C11.7226 20.0956 11.2627 20.0956 10.8715 19.7044C9.80083 18.6406 8.737 17.5768 7.67317 16.5061C5.74455 14.5775 3.82279 12.6557 1.89417 10.7271C0.617572 9.45048 -0.0275895 7.90622 -0.000135793 6.08741C0.0479081 3.03319 2.38833 0.438817 5.42883 0.0819194C7.41236 -0.151437 9.12821 0.431954 10.5764 1.80464C10.8852 2.09976 11.1735 2.41548 11.4686 2.72434C11.5167 2.74493 11.5647 2.76552 11.6128 2.78611ZM11.5373 18.0229C11.6196 17.9199 11.6745 17.8376 11.75 17.7621C13.0472 16.458 14.3513 15.1608 15.6553 13.8568C17.1378 12.3743 18.634 10.9055 20.096 9.40244C21.1666 8.29743 21.5785 6.94534 21.2902 5.43539C20.9539 3.65776 19.8969 2.43607 18.1605 1.89386C16.424 1.35165 14.866 1.77032 13.5483 3.01946C13.0678 3.47245 12.6148 3.95289 12.1481 4.41274C11.7363 4.81768 11.2833 4.81768 10.8647 4.40587C10.3636 3.91171 9.87632 3.40381 9.36843 2.92337C7.68689 1.3242 5.03075 1.2487 3.27372 2.73806C1.20096 4.4951 1.07742 7.56304 3.00604 9.49853C5.77886 12.2851 8.55855 15.0579 11.3382 17.8376C11.3863 17.8925 11.4343 17.9337 11.5373 18.0229Z" fill="#6E35BF"/>
</g>
<defs>
<clipPath id="clip0_110_2793">
<rect width="23.0062" height="20" fill="white"/>
</clipPath>
</defs>
</svg>
