<svg width="43" height="24" viewBox="0 0 43 24" fill="none" xmlns="http://www.w3.org/2000/svg">
<path d="M42.6819 15.7523C42.4862 16.5107 42.3761 17.3058 42.0948 18.0397C40.6636 21.5994 38.0214 23.6422 34.1926 23.9358C29.2752 24.315 24.9694 20.6575 24.5535 15.7401C24.2722 12.3884 25.5321 9.63608 28.2232 7.58104C28.3945 7.44648 28.578 7.32415 28.7859 7.17737C28.6636 6.94495 28.5535 6.72477 28.4434 6.50458C28.3333 6.2844 28.211 6.07645 28.0764 5.80734C27.5504 6.62691 27.0489 7.39755 26.5474 8.15596C25.1774 10.2599 23.8073 12.3639 22.4618 14.4801C22.1682 14.9572 21.9358 15.4832 21.7523 16.0092C21.4832 16.7553 21.2752 17.5138 21.0306 18.3333C21.263 18.3333 21.4709 18.3211 21.6667 18.3333C22.0826 18.37 22.3517 18.6391 22.3761 19.0183C22.4006 19.422 22.156 19.7523 21.7156 19.7645C20.8104 19.8012 19.9174 19.8012 19.0122 19.7767C18.5841 19.7645 18.3027 19.4342 18.3027 19.055C18.315 18.6514 18.6208 18.37 19.0734 18.3333C19.2079 18.3211 19.3425 18.3333 19.5138 18.3333C19.7829 17.4281 20.052 16.5596 20.3333 15.63C19.5994 15.63 18.9266 15.63 18.2171 15.63C17.8012 18.9572 16.1743 21.4893 13.1529 23.0183C10.9633 24.1315 8.65137 24.3027 6.32722 23.5076C1.47095 21.893 -1.07339 16.8043 0.431196 12.107C1.83792 7.69113 7.42813 3.87462 13.422 6.84709C13.948 6.03975 14.474 5.22018 14.9878 4.40061C15.0367 4.32721 15.0245 4.18043 14.9755 4.0948C14.5719 3.28746 14.1682 2.48012 13.7401 1.68501C13.6911 1.58715 13.5076 1.50153 13.3853 1.4893C13.0061 1.46483 12.6391 1.4893 12.2599 1.47706C11.7706 1.46483 11.4526 1.17125 11.4404 0.755351C11.4404 0.376147 11.7584 0.0336391 12.2355 0.0336391C13.8012 0.0214067 15.3792 0.0214067 16.9449 0.0336391C17.4342 0.0458715 17.7156 0.376147 17.7034 0.804281C17.6911 1.20795 17.3975 1.4893 16.9205 1.50153C16.4067 1.51376 15.893 1.50153 15.3058 1.50153C15.6605 2.18654 15.9786 2.83486 16.3089 3.45871C16.3456 3.53211 16.4923 3.58104 16.578 3.58104C19.9908 3.58104 23.4037 3.58104 26.8287 3.56881C26.841 3.56881 26.8532 3.55657 26.8899 3.53211C26.841 3.40978 26.7798 3.28746 26.7309 3.16514C26.3884 2.50459 26.0336 1.84404 25.7034 1.17125C25.4098 0.571865 25.7034 0.0336391 26.3517 0.0214067C27.9541 -0.0030581 29.5443 -0.0152905 31.1468 0.0336391C32.3088 0.0703363 33.1773 0.90214 33.263 1.94189C33.3608 3.05504 32.737 4.00917 31.6728 4.26605C31.2202 4.37614 30.7431 4.35168 30.266 4.33945C29.8746 4.32721 29.5933 3.98471 29.6055 3.61773C29.6177 3.263 29.8868 2.95718 30.266 2.92049C30.5107 2.89602 30.7676 2.92049 31.0122 2.90826C31.5015 2.88379 31.8196 2.59021 31.8073 2.17431C31.7951 1.77064 31.4893 1.50153 31.0122 1.4893C29.8624 1.47706 28.7248 1.4893 27.5015 1.4893C28.3822 3.1896 29.2141 4.81651 30.0459 6.41896C30.8287 6.2477 31.5627 6.00305 32.3088 5.91743C35.7217 5.47706 38.5351 6.62691 40.7125 9.26911C41.7767 10.5657 42.3761 12.0703 42.5963 13.7339C42.6085 13.8563 42.6452 13.9664 42.6819 14.0887C42.6819 14.6391 42.6819 15.2018 42.6819 15.7523ZM30.792 7.83792C30.8532 7.96024 30.9021 8.08256 30.9633 8.20489C32.003 10.211 33.0306 12.2171 34.0703 14.2355C34.1559 14.3945 34.2293 14.5657 34.2783 14.737C34.3761 15.0917 34.2171 15.3731 33.9113 15.5321C33.5933 15.7034 33.2874 15.63 33.0428 15.3608C32.9327 15.2385 32.8593 15.0795 32.7859 14.9327C31.7462 12.9266 30.7186 10.9205 29.6789 8.90213C29.6055 8.76758 29.5321 8.64525 29.4587 8.5107C26.2783 10.4679 24.896 14.8471 26.8777 18.5168C28.8715 22.211 33.4709 23.581 37.1896 21.5994C40.8715 19.6422 42.2905 15.0306 40.3088 11.3119C38.2783 7.49541 33.8501 6.48012 30.792 7.83792ZM16.6514 15.6177C16.5046 15.6177 16.3456 15.6177 16.1988 15.6177C14.8165 15.6177 13.422 15.6177 12.0398 15.6177C11.0856 15.6177 10.1193 15.63 9.16513 15.6055C8.49235 15.5933 8.19877 15.0306 8.52905 14.4434C8.57798 14.3456 8.65137 14.2599 8.71253 14.1621C9.91131 12.2783 11.1346 10.3823 12.3578 8.49847C12.4312 8.37614 12.5046 8.25382 12.578 8.13149C9.6422 6.55351 5.85015 7.20183 3.57492 9.66054C1.14068 12.266 0.798168 15.9847 2.70642 19.0306C4.45566 21.8318 8.11315 23.1651 11.2936 22.1988C14.6697 21.159 16.5535 18.0764 16.6514 15.6177ZM26.792 5.08562C23.5504 5.08562 20.37 5.08562 17.1284 5.08562C18.5596 7.88685 19.9541 10.6269 21.3853 13.4281C23.1957 10.6269 24.9694 7.88685 26.792 5.08562ZM13.8134 8.93883C12.7003 10.6636 11.5994 12.3761 10.474 14.1254C12.5902 14.1254 14.6208 14.1254 16.6636 14.1254C16.6024 12.315 15.3058 9.95412 13.8134 8.93883ZM14.633 7.67889C16.7125 9.35473 17.8991 11.5076 18.1682 14.1376C18.8287 14.1376 19.4404 14.1376 20.1009 14.1376C18.6819 11.3486 17.2752 8.60856 15.844 5.80734C15.4159 6.45565 15.0367 7.05504 14.633 7.67889Z" fill="#541AA6"/>
</svg>
