<svg width="26" height="24" viewBox="0 0 26 24" fill="none" xmlns="http://www.w3.org/2000/svg">
<path d="M25.927 15.0446C25.7918 15.7548 25.6565 16.465 25.5212 17.1752C25.1492 19.1706 24.7772 21.1659 24.3984 23.1613C24.3037 23.6618 23.9114 23.9865 23.3973 24C23.3297 24 23.2621 24 23.1944 24C16.3696 24 9.54487 24 2.7201 24C1.96254 24 1.63787 23.743 1.49583 23.0057C1.02236 20.4625 0.542123 17.9193 0.0686504 15.376C-0.0801554 14.5711 0.0415948 13.7798 0.163345 12.9884C0.447429 11.1148 0.704457 9.23441 1.02236 7.36758C1.39437 5.19636 2.52395 3.53245 4.45842 2.45022C5.84502 1.67237 7.23838 0.921581 8.63851 0.177552C8.82113 0.0760939 9.05111 0.0355105 9.26079 0.0219827C9.59898 -0.00507292 9.93718 0.00845487 10.2754 0.0152188C10.5459 0.0219827 10.715 0.170788 10.715 0.393997C10.715 0.62397 10.5527 0.766011 10.2686 0.766011C10.0589 0.766011 9.84925 0.766011 9.60575 0.766011C9.90336 1.42887 10.086 2.11879 10.6812 2.56521C11.0735 2.86282 11.5132 3.03868 12.0137 3.03868C12.6495 3.04545 13.2785 3.05221 13.9144 3.03868C14.8275 3.01163 15.4971 2.56521 15.9029 1.74678C16.0585 1.4424 16.1803 1.11773 16.3358 0.766011C16.2073 0.766011 16.1194 0.766011 16.0315 0.766011C14.7598 0.766011 13.4815 0.766011 12.2098 0.766011C12.0272 0.766011 11.8717 0.725428 11.7837 0.556331C11.6552 0.299302 11.8311 0.0219827 12.1422 0.00845487C12.4195 -0.00507292 12.6968 0.00169097 12.9742 0.00169097C14.2323 0.00169097 15.4903 -0.00507292 16.7484 0.00845487C16.9108 0.00845487 17.0866 0.0558022 17.2287 0.130205C18.7438 0.948637 20.2724 1.72649 21.7537 2.60579C23.377 3.56627 24.3984 5.02727 24.8042 6.86028C25.0613 8.01691 25.1898 9.20059 25.3724 10.3775C25.5483 11.5409 25.7174 12.7111 25.8932 13.8812C25.9 13.915 25.9203 13.9421 25.927 13.9759C25.927 14.3344 25.927 14.6861 25.927 15.0446ZM7.56981 1.61826C6.67022 2.11203 5.79091 2.59226 4.90484 3.05897C4.73574 3.1469 4.72898 3.23483 4.78309 3.39717C5.01306 4.11414 5.20245 4.83788 5.45271 5.54132C5.99383 7.0632 6.18998 8.62566 6.16969 10.2355C6.13587 13.9083 6.15616 17.5743 6.15616 21.2471C6.15616 21.3553 6.15616 21.4635 6.15616 21.5921C6.27791 21.5921 6.3726 21.5921 6.46053 21.5921C7.01517 21.5921 7.57658 21.5853 8.13122 21.5921C8.40177 21.5921 8.55058 21.7341 8.55734 21.9573C8.56411 22.194 8.40854 22.3361 8.12445 22.3428C7.94183 22.3496 7.75244 22.3428 7.56981 22.3428C7.10987 22.3428 6.64316 22.3428 6.17645 22.3428C6.17645 22.654 6.17645 22.9313 6.17645 23.2154C10.7083 23.2154 15.2198 23.2154 19.7448 23.2154C19.7448 22.9245 19.7448 22.654 19.7448 22.3428C19.6231 22.3428 19.5149 22.3428 19.4066 22.3428C16.3426 22.3428 13.2785 22.3428 10.2145 22.3428C10.113 22.3428 10.0116 22.3428 9.91012 22.3293C9.70044 22.3023 9.59222 22.1737 9.58546 21.9708C9.57869 21.7611 9.70044 21.6191 9.91689 21.5921C10.0183 21.5785 10.1198 21.5853 10.2213 21.5853C13.2853 21.5853 16.3494 21.5853 19.4134 21.5853C19.5216 21.5853 19.6298 21.5853 19.7584 21.5853C19.7584 21.4432 19.7584 21.335 19.7584 21.2268C19.7584 17.8787 19.7584 14.5238 19.7584 11.1756C19.7584 11.0674 19.7584 10.9524 19.7787 10.851C19.8192 10.6481 19.9613 10.5534 20.1642 10.5601C20.3603 10.5737 20.4753 10.6819 20.5024 10.8713C20.5159 10.9592 20.5159 11.0539 20.5159 11.1486C20.5159 12.2105 20.5159 13.2725 20.5159 14.3412C20.5159 14.4088 20.5227 14.4764 20.5294 14.5441C20.6985 14.2668 20.8271 13.9827 20.9623 13.7053C21.0773 13.4754 21.2802 13.3942 21.4832 13.4889C21.6928 13.5904 21.7537 13.8 21.6387 14.0503C21.3005 14.7943 20.9488 15.5316 20.6106 16.2756C20.5565 16.4041 20.5159 16.5462 20.5159 16.6882C20.5092 17.7366 20.5092 18.7783 20.5092 19.8267C20.5092 19.9078 20.5092 19.989 20.5092 20.0769C21.7537 20.0769 22.9644 20.0769 24.1752 20.0769C24.1955 20.0025 24.209 19.9484 24.2225 19.8943C24.466 18.5956 24.696 17.2902 24.953 15.9915C25.1086 15.1866 25.1965 14.3817 25.068 13.5565C24.7569 11.6018 24.4728 9.64025 24.1819 7.67872C23.9858 6.35299 23.4582 5.1896 22.5451 4.2156C22.3422 3.99915 22.1122 3.803 21.8619 3.56627C21.7131 4.03297 21.5846 4.45234 21.4561 4.86493C21.0367 6.27859 20.4821 7.65842 20.4956 9.16677C20.4956 9.38322 20.3536 9.50497 20.1304 9.51173C19.9207 9.5185 19.7584 9.37645 19.7516 9.15324C19.7516 8.82181 19.7719 8.49715 19.7989 8.16572C19.8801 7.25259 20.1845 6.39357 20.455 5.52103C20.6985 4.73642 20.942 3.94504 21.1855 3.1469C20.2251 2.62608 19.2849 2.11203 18.3312 1.59121C18.1418 2.0038 17.9862 2.39611 17.7968 2.76813C17.1137 4.08032 16.0517 4.92581 14.584 5.12873C13.6776 5.25048 12.751 5.23695 11.8311 5.19636C10.1469 5.14225 8.88877 4.29677 8.09063 2.77489C7.90125 2.40964 7.75244 2.0241 7.56981 1.61826ZM4.05259 3.60008C2.80803 4.61467 2.03694 5.87275 1.77992 7.41492C1.46878 9.29529 1.20499 11.1757 0.920902 13.0628C0.826207 13.7189 0.677401 14.3817 0.799151 15.0446C1.00883 16.2283 1.22528 17.412 1.44849 18.6024C1.54318 19.1029 1.63787 19.6035 1.73257 20.104C2.9636 20.104 4.16757 20.104 5.40537 20.104C5.40537 20.0025 5.40537 19.9146 5.40537 19.8199C5.40537 18.8865 5.3986 17.9463 5.41213 17.0129C5.41889 16.6679 5.35126 16.3568 5.20245 16.0457C4.89131 15.4099 4.60046 14.7673 4.30961 14.1179C4.26903 14.0233 4.20139 13.888 4.23521 13.8136C4.29609 13.6851 4.41107 13.543 4.53959 13.4957C4.71545 13.428 4.86425 13.543 4.94542 13.7053C5.08746 13.9962 5.21598 14.287 5.35802 14.5779C5.37831 14.5711 5.39184 14.5644 5.41213 14.5644C5.41213 14.4832 5.41213 14.402 5.41213 14.3209C5.41213 12.826 5.39184 11.338 5.41889 9.84316C5.43919 8.59861 5.27685 7.39463 4.87102 6.21771C4.57341 5.3587 4.32991 4.49968 4.05259 3.60008ZM17.0934 0.928345C16.9446 1.2733 16.8025 1.59797 16.6605 1.92264C16.2276 2.89664 15.5106 3.59332 14.4555 3.7286C13.5288 3.85035 12.5683 3.85035 11.6349 3.75565C10.5189 3.64743 9.74103 2.97781 9.28784 1.94969C9.13904 1.61826 8.99023 1.28007 8.83466 0.928345C8.62498 1.04333 8.44236 1.14479 8.23268 1.25301C8.44912 1.72648 8.62498 2.19996 8.88201 2.63285C9.55164 3.77595 10.5662 4.40499 11.8987 4.4591C12.6224 4.49292 13.3462 4.47263 14.0767 4.4591C14.2931 4.4591 14.5163 4.41852 14.726 4.37117C16.3899 3.9721 17.1746 2.74107 17.6683 1.22596C17.4789 1.13803 17.2963 1.03657 17.0934 0.928345ZM5.3986 20.8886C4.20816 20.8886 3.04477 20.8886 1.87461 20.8886C2.00989 21.6056 2.14517 22.2955 2.27368 22.9922C2.3075 23.1613 2.4022 23.2424 2.57129 23.2424C3.42354 23.2424 4.2758 23.2424 5.12805 23.2424C5.29714 23.2424 5.40537 23.1545 5.40537 22.9787C5.40537 22.2887 5.3986 21.5988 5.3986 20.8886ZM20.5362 20.8818C20.5362 21.6056 20.5294 22.3226 20.5497 23.0328C20.5497 23.1072 20.7391 23.2289 20.8406 23.2289C21.6725 23.2424 22.5113 23.2357 23.3432 23.2357C23.5326 23.2357 23.6341 23.1477 23.6679 22.9584C23.722 22.6269 23.7896 22.2955 23.8505 21.9641C23.9182 21.6056 23.9858 21.2471 24.0534 20.8751C22.863 20.8818 21.7131 20.8818 20.5362 20.8818Z" fill="#541AA6"/>
</svg>
