<svg width="18" height="24" viewBox="0 0 18 24" fill="none" xmlns="http://www.w3.org/2000/svg">
<path d="M8.73654 17.1938C8.64902 18.0219 8.55477 18.8432 8.46726 19.6712C8.32588 20.9638 8.19124 22.2564 8.04986 23.5557C8.00947 23.8923 7.90176 23.9865 7.55169 23.9865C6.55533 23.9865 5.55225 23.9865 4.5559 23.9865C4.19236 23.9865 4.07118 23.8586 4.08465 23.4951C4.19236 21.4149 4.30681 19.3346 4.41452 17.2544C4.50877 15.4906 4.61648 13.7335 4.68381 11.9697C4.7242 10.933 4.69054 9.88948 4.69054 8.85274C4.66361 8.91332 4.62322 9.00084 4.58956 9.08836C4.07118 10.3877 3.55281 11.6937 3.03444 12.993C2.88633 13.3633 2.76515 13.4171 2.40162 13.2757C1.70821 13.0065 1.0148 12.7304 0.321393 12.4544C0.00498346 12.3265 -0.0623377 12.1919 0.0521083 11.8687C1.08212 9.04123 2.11214 6.20701 3.14888 3.38626C3.46529 2.52454 4.11831 2.03983 5.00695 1.8648C5.42434 1.78401 5.84173 1.68976 6.29278 1.58878C6.29278 1.21851 6.29278 0.848247 6.29278 0.47798C6.29278 0.114446 6.40723 0 6.77749 0C8.10372 0 9.42995 0 10.7562 0C11.1466 0 11.2544 0.107714 11.2544 0.491445C11.2544 0.79439 11.2611 1.09734 11.2544 1.40028C11.2476 1.54839 11.2947 1.60224 11.4429 1.6359C11.8737 1.71669 12.2978 1.81094 12.722 1.91192C13.5231 2.10715 14.0953 2.5784 14.3848 3.35259C15.435 6.20028 16.4717 9.0547 17.5152 11.9024C17.6162 12.1784 17.5422 12.3332 17.2729 12.441C16.5593 12.7237 15.8389 13.0065 15.1186 13.2892C14.7954 13.4171 14.6541 13.3498 14.5194 13.0132C14.0011 11.7072 13.476 10.3944 12.9576 9.08836C12.9239 9.00757 12.8835 8.92679 12.8297 8.79215C12.8297 9.72118 12.8027 10.5896 12.8364 11.4581C12.9105 13.2286 13.0182 14.9992 13.1124 16.7697C13.2269 18.9173 13.3346 21.0648 13.4558 23.2123C13.4961 23.9461 13.4558 24 12.7354 24C11.84 24 10.9379 24 10.0426 24C9.63864 24 9.53766 23.9125 9.49727 23.5086C9.27511 21.4351 9.05295 19.3683 8.83079 17.3015C8.83079 17.2746 8.81733 17.241 8.81059 17.214C8.7702 17.1938 8.75674 17.1938 8.73654 17.1938ZM5.42434 11.4581C5.21564 15.4098 5.01368 19.3346 4.80498 23.2595C5.68016 23.2595 6.51494 23.2595 7.36319 23.2595C7.41031 22.8488 7.45744 22.4583 7.49783 22.0679C7.80078 19.2808 8.10372 16.4937 8.40667 13.7066C8.4336 13.4306 8.54804 13.3027 8.75674 13.3027C8.96543 13.3027 9.08661 13.4306 9.12027 13.6999C9.20779 14.5144 9.30204 15.3358 9.38956 16.1504C9.58479 17.9344 9.78002 19.7251 9.97525 21.5091C10.0358 22.0948 10.1032 22.6738 10.1705 23.2662C11.0255 23.2662 11.8602 23.2662 12.7287 23.2662C12.52 19.3212 12.318 15.3964 12.1093 11.4581C9.87427 11.4581 7.66613 11.4581 5.42434 11.4581ZM8.3932 10.731C8.40667 10.6839 8.4134 10.6704 8.4134 10.6569C8.4134 8.14586 8.4134 5.63478 8.40667 3.1237C8.40667 3.04965 8.32588 2.94194 8.25856 2.91501C7.75365 2.69285 7.23528 2.49088 6.72364 2.28892C6.65632 2.26199 6.57553 2.24853 6.50148 2.26872C5.94944 2.38317 5.39741 2.48415 4.85884 2.63226C4.29334 2.7871 3.81536 3.32567 3.7817 3.81038C4.01059 3.8979 4.25295 3.97868 4.48184 4.07293C4.77132 4.18738 4.84538 4.34222 4.73766 4.62496C4.46838 5.31837 4.19236 6.01178 3.92308 6.71192C3.85576 6.88696 3.73458 6.98121 3.54608 7.0014C3.27006 7.03506 3.00078 7.08219 2.72476 7.10238C2.56319 7.10912 2.49587 7.18317 2.44874 7.32454C2.09194 8.30743 1.72841 9.29032 1.3716 10.2799C1.35141 10.3338 1.34467 10.3877 1.33121 10.455C1.89671 10.6771 2.44874 10.8926 3.02097 11.1147C3.06136 11.0137 3.09503 10.9262 3.12869 10.8454C3.65379 9.51922 4.18563 8.19972 4.704 6.87349C4.78479 6.67153 4.88577 6.50323 5.13486 6.53689C5.34355 6.56382 5.4378 6.71192 5.4378 7.01487C5.4378 8.16606 5.4378 9.31725 5.4378 10.4684C5.4378 10.556 5.4378 10.6502 5.4378 10.7445C6.44089 10.731 7.41705 10.731 8.3932 10.731ZM16.2159 10.4415C16.189 10.3607 16.1755 10.3069 16.1553 10.253C15.7985 9.27686 15.435 8.3007 15.0849 7.32454C15.0311 7.16971 14.957 7.10239 14.782 7.08892C14.5262 7.07546 14.2636 7.02833 14.0078 6.99467C13.8058 6.97447 13.6712 6.88022 13.5971 6.67826C13.3346 5.99158 13.0586 5.30491 12.796 4.61823C12.6883 4.33548 12.7623 4.17391 13.0451 4.0662C13.2875 3.97195 13.5298 3.88443 13.7856 3.79018C13.6039 3.19102 13.2403 2.78036 12.6546 2.61879C12.1295 2.47069 11.591 2.36971 11.0591 2.26199C10.9581 2.2418 10.8437 2.26872 10.7427 2.30912C10.2715 2.49088 9.81368 2.68612 9.34243 2.86115C9.16066 2.92847 9.11354 3.01599 9.11354 3.21122C9.12027 5.62805 9.12027 8.04488 9.12027 10.4684C9.12027 10.5492 9.127 10.63 9.13374 10.7175C10.1234 10.7175 11.0995 10.7175 12.0959 10.7175C12.0959 10.6098 12.0959 10.5156 12.0959 10.4281C12.0959 9.29706 12.0959 8.15933 12.0959 7.02833C12.0959 6.95428 12.0689 6.86003 12.1093 6.80617C12.1834 6.69846 12.2844 6.55708 12.3921 6.53689C12.4998 6.51669 12.6412 6.61767 12.7489 6.69846C12.8095 6.73885 12.8229 6.84656 12.8499 6.92062C13.3682 8.22665 13.8933 9.53941 14.4117 10.8454C14.4454 10.9262 14.4858 11.007 14.5262 11.0945C15.0984 10.8791 15.6437 10.6704 16.2159 10.4415ZM9.13374 2.2014C9.59152 2.01964 10.0291 1.8446 10.4734 1.66283C10.5071 1.64937 10.5475 1.58878 10.5475 1.54839C10.5542 1.27237 10.5475 1.00309 10.5475 0.720337C10.056 0.720337 9.59825 0.720337 9.13374 0.720337C9.13374 1.21178 9.13374 1.68976 9.13374 2.2014ZM6.99292 0.720337C6.99292 1.00309 6.99292 1.26564 6.99292 1.53492C6.99292 1.57532 7.01985 1.64264 7.05351 1.6561C7.49783 1.83787 7.94215 2.01964 8.39993 2.2014C8.39993 1.68303 8.39993 1.21178 8.39993 0.720337C7.93542 0.720337 7.47763 0.720337 6.99292 0.720337ZM16.4583 11.108C15.8861 11.3302 15.3407 11.5456 14.7753 11.7677C14.883 12.037 14.9772 12.2727 15.0782 12.5352C15.6437 12.313 16.189 12.0976 16.7478 11.8822C16.6468 11.6062 16.5593 11.3638 16.4583 11.108ZM2.75842 11.7677C2.17946 11.5389 1.64089 11.3302 1.07539 11.108C0.974409 11.3773 0.886891 11.6196 0.792641 11.8822C1.35814 12.1043 1.89671 12.313 2.46221 12.5352C2.56319 12.2727 2.65744 12.0303 2.75842 11.7677ZM2.82574 6.31473C2.83921 6.34166 2.85267 6.36858 2.87287 6.40224C3.04117 6.33492 3.29699 6.32146 3.35758 6.20028C3.59993 5.7021 3.77497 5.17027 3.98366 4.63843C3.81536 4.57784 3.66726 4.52398 3.50568 4.46339C3.27006 5.09621 3.0479 5.7021 2.82574 6.31473ZM13.5567 4.63843C13.7318 5.08948 13.9001 5.52707 14.0684 5.95792C14.2232 6.35512 14.2501 6.37532 14.7147 6.33492C14.4858 5.71557 14.2636 5.09621 14.028 4.46339C13.8664 4.52398 13.725 4.57784 13.5567 4.63843Z" fill="#541AA6"/>
</svg>
