<svg width="24" height="24" viewBox="0 0 24 24" fill="none" xmlns="http://www.w3.org/2000/svg">
<path d="M0 11.3127C0.0720867 10.8562 0.0961156 10.3996 0.192231 9.9431C0.552664 7.80453 1.46576 5.90625 2.88347 4.24825C3.05167 4.03199 3.26793 4.00797 3.43613 4.12811C3.62836 4.27228 3.62836 4.51257 3.46016 4.72883C2.11454 6.29071 1.2495 8.06885 0.913098 10.1113C0.312375 13.9559 1.39368 17.2959 4.13297 20.0593C5.86305 21.7893 7.97759 22.8226 10.4285 23.159C13.5283 23.5675 16.3637 22.8226 18.8386 20.9243C21.2415 19.0741 22.7073 16.5991 23.1158 13.5955C23.5964 10.1113 22.6112 7.03561 20.2564 4.44049C18.4542 2.44609 16.1955 1.24464 13.5523 0.884211C10.6929 0.499748 8.07371 1.1245 5.67082 2.71041C5.59873 2.75846 5.52664 2.83055 5.43053 2.87861C5.21427 3.02278 4.97398 2.99875 4.85384 2.80652C4.73369 2.63832 4.80578 2.39803 4.99801 2.25386C5.52664 1.91745 6.05528 1.55702 6.60794 1.26867C11.4137 -1.13422 17.1807 -0.052916 20.809 3.91185C23.0197 6.33877 24.0769 9.22223 23.9568 12.4902C23.7646 17.9928 19.7037 22.7265 14.3212 23.7597C13.8647 23.8558 13.3841 23.8799 12.9035 23.9519C12.8314 23.9519 12.7834 23.976 12.7353 24C12.2307 24 11.7261 24 11.2455 24C10.9572 23.976 10.6688 23.9279 10.3805 23.9039C8.16982 23.5915 6.19945 22.7505 4.46937 21.3328C2.1626 19.4345 0.720867 17.0316 0.192231 14.0761C0.0961156 13.6435 0.0720867 13.211 0 12.7545C0 12.2739 0 11.7933 0 11.3127Z" fill="#541AA6"/>
<path d="M18.6224 18.1369C19.0068 17.5843 19.3913 17.0557 19.7517 16.527C19.7758 16.479 19.7998 16.4069 19.8479 16.3588C19.992 16.1426 20.1843 16.0705 20.3765 16.1906C20.5687 16.3108 20.6408 16.527 20.4966 16.7433C20.1122 17.2959 19.7758 17.8967 19.3192 18.4013C17.2768 20.708 14.6576 21.8614 11.5339 21.7413C6.99241 21.5731 3.12376 18.0889 2.37886 13.6195C1.60994 8.98195 4.22908 4.51257 8.62637 2.87861C14.2251 0.788095 20.4246 4.29631 21.5299 10.1834C21.8182 11.7453 21.7221 13.2831 21.2896 14.7969C21.2175 15.0613 21.0493 15.1574 20.8571 15.1093C20.6408 15.0372 20.5447 14.845 20.6168 14.6047C20.833 13.9079 20.9292 13.187 20.9772 12.4181C18.5984 12.4181 16.2195 12.4181 13.8406 12.4181C13.7686 12.6103 13.6724 12.7785 13.6244 12.9707C13.6003 13.0428 13.6484 13.1389 13.6965 13.187C14.8499 14.3404 16.0032 15.4938 17.1566 16.6472C17.6132 17.1277 18.0938 17.5843 18.6224 18.1369ZM20.9532 11.6011C20.833 9.41447 20.0401 7.54021 18.5984 5.90625C17.8775 6.62711 17.1807 7.32395 16.4838 8.02079C16.4117 8.09288 16.3156 8.18899 16.2195 8.26108C16.0513 8.38122 15.8831 8.35719 15.7389 8.21302C15.5947 8.06885 15.5947 7.90064 15.7149 7.73244C15.7629 7.66036 15.811 7.6123 15.8831 7.56424C16.5559 6.89143 17.2287 6.21862 17.8775 5.56984C17.9256 5.52179 18.0217 5.47373 18.1178 5.42567C16.4358 3.91185 14.5615 3.1189 12.3749 3.02278C12.3749 5.42567 12.3749 7.80453 12.3749 10.1594C12.6152 10.2555 12.8314 10.3276 13.0957 10.4477C13.1438 10.3997 13.1919 10.3276 13.2639 10.2555C13.7445 9.7749 14.2011 9.29432 14.6817 8.83777C14.8018 8.71763 14.9219 8.62151 15.1142 8.6936C15.4025 8.78971 15.4746 9.10209 15.2343 9.34238C14.8018 9.7749 14.3933 10.2314 13.9368 10.6399C13.6724 10.8802 13.5523 11.0725 13.7686 11.4089C13.8647 11.553 13.9368 11.6251 14.105 11.6251C16.2916 11.6251 18.5022 11.6251 20.6889 11.6251C20.7369 11.6011 20.833 11.6011 20.9532 11.6011ZM5.38247 5.90625C3.89268 7.56424 3.09973 9.43849 3.00361 11.6251C5.4065 11.6251 7.78536 11.6251 10.1402 11.6251C10.2123 11.4569 10.2363 11.2887 10.3324 11.1445C10.4285 11.0004 10.3805 10.9043 10.2603 10.7841C9.03486 9.58267 7.83342 8.38122 6.63197 7.17978C6.19945 6.77129 5.81499 6.33877 5.38247 5.90625ZM11.606 21.0204C11.606 18.6175 11.606 16.2387 11.606 13.8838C11.4377 13.8118 11.2936 13.7877 11.1494 13.7156C11.0052 13.6195 10.9091 13.6435 10.7649 13.7637C9.20306 15.3496 7.61716 16.9355 6.05528 18.5214C6.00722 18.5695 5.98319 18.6175 5.93514 18.6656C7.54507 20.1073 9.41932 20.9003 11.606 21.0204ZM5.35844 18.0889C5.43053 18.0168 5.47859 17.9687 5.55067 17.9207C6.19945 17.2719 6.84823 16.6472 7.47298 15.9984C8.41011 15.0613 9.34724 14.1482 10.2844 13.211C10.3805 13.1149 10.4285 13.0188 10.3564 12.8987C10.2844 12.7545 10.2123 12.5622 10.1642 12.4181C7.78536 12.4181 5.4065 12.4181 3.02764 12.4181C3.09973 14.5807 3.89268 16.4549 5.35844 18.0889ZM11.606 3.02278C9.41932 3.14293 7.54507 3.93588 5.91111 5.37761C5.98319 5.4497 6.03125 5.49776 6.07931 5.54581C7.59313 7.08366 9.13098 8.62151 10.6448 10.1594C10.837 10.3516 11.0052 10.4717 11.2695 10.2795C11.3657 10.2074 11.4858 10.2074 11.606 10.1594C11.606 7.80453 11.606 5.42567 11.606 3.02278ZM12.4229 13.8358C12.4229 16.2387 12.4229 18.6175 12.4229 20.9964C14.6096 20.8762 16.4838 20.1073 18.1178 18.6175C18.0457 18.5454 17.9496 18.4974 17.9015 18.4493C16.3877 16.9355 14.8499 15.3977 13.336 13.8598C13.1438 13.6676 12.9756 13.5474 12.7113 13.7397C12.6392 13.7877 12.519 13.8118 12.4229 13.8358ZM13.1198 12.0096C13.1198 11.3608 12.6392 10.8802 11.9904 10.8802C11.3657 10.8802 10.8851 11.3608 10.8611 11.9856C10.8611 12.6343 11.3416 13.1149 11.9664 13.1149C12.6152 13.1389 13.1198 12.6584 13.1198 12.0096Z" fill="#541AA6"/>
</svg>
