<svg width="24" height="24" viewBox="0 0 24 24" fill="none" xmlns="http://www.w3.org/2000/svg">
<path d="M11.7982 24C11.2968 23.8801 10.8609 23.6512 10.6538 23.1608C10.5557 22.921 10.523 22.6377 10.4903 22.3652C10.4685 22.1799 10.4794 21.9946 10.4903 21.7985C10.4903 21.6023 10.523 21.3952 10.3159 21.2535C10.2615 21.2208 10.2288 21.1227 10.2288 21.0465C10.1634 20.556 10.1089 20.0656 10.0653 19.586C10.0217 19.1065 10.1634 18.6705 10.4576 18.3C10.5666 18.1583 10.5993 18.0275 10.5993 17.8531C10.5884 16.5889 10.5993 15.3246 10.5993 14.0386C10.5448 14.0604 10.5012 14.0713 10.4685 14.0931C9.29147 14.8778 7.98363 15.2156 6.57769 15.281C4.59413 15.3682 2.59967 15.4881 0.616104 15.5971C0.234649 15.6189 0.00577662 15.4445 0.00577662 15.0849C0.0166753 13.777 -0.0596156 12.4583 0.136561 11.1504C0.409029 9.36304 1.05205 7.71734 2.05473 6.22422C2.22911 5.96265 2.49068 5.89726 2.71955 6.03894C2.94843 6.18062 2.99202 6.45309 2.83944 6.73646C2.49068 7.36858 2.10923 7.98981 1.81496 8.64373C1.21553 9.97337 0.964862 11.3902 0.943065 12.8506C0.932166 13.4283 0.943065 14.0059 0.943065 14.6053C1.01936 14.6053 1.08475 14.6162 1.15014 14.6162C3.09011 14.5072 5.03008 14.4091 6.97005 14.3002C8.55036 14.2021 9.8691 13.5481 11.0026 12.4365C11.384 12.0659 11.7873 11.6954 12.245 11.4229C13.1278 10.8889 14.0978 10.8453 15.1005 11.0741C16.1141 11.3139 17.1385 11.5537 18.1521 11.7608C19.3728 12.0223 20.4408 11.6954 21.3454 10.8453C21.8577 10.3657 22.3481 9.85349 22.8386 9.36304C22.8604 9.34125 22.8821 9.29765 22.9475 9.22136C22.8495 9.26496 22.795 9.27586 22.7405 9.29765C22.4571 9.43934 22.1846 9.57012 21.9013 9.7118C21.4217 9.95157 20.9204 10.0715 20.3863 10.0606C19.4927 10.0606 18.6099 10.0606 17.7162 10.0606C17.2148 10.0606 16.8552 9.82079 16.7353 9.41754C16.6154 9.00339 16.7898 8.60013 17.2148 8.32767C18.6426 7.42308 20.0812 6.51848 21.5089 5.61389C21.5852 5.5594 21.6615 5.5158 21.7269 5.47221C21.5307 5.28693 21.3018 5.12345 21.1493 4.91637C20.9967 4.7093 20.9313 4.44773 20.8114 4.16436C20.3645 4.16436 19.8741 4.16436 19.3728 4.16436C19.1112 4.16436 18.8496 4.17526 18.599 4.13167C18.1521 4.05538 17.8687 3.75021 17.7598 3.31426C17.6508 2.86742 17.7707 2.46417 18.1412 2.1808C18.6208 1.82114 19.1221 1.49418 19.6125 1.14542C19.6779 1.10183 19.7324 1.05823 19.7651 0.971044C19.6779 0.992841 19.5907 1.01464 19.5036 1.03644C18.7515 1.27621 18.0104 1.53778 17.2584 1.75575C16.8988 1.86474 16.5064 1.93013 16.1359 1.93013C14.5446 1.95193 12.9534 1.91923 11.3622 1.96283C9.34596 2.01732 7.49318 2.64944 5.80389 3.77201C5.62951 3.881 5.47692 4.00088 5.30255 4.12077C5.03008 4.30605 4.75761 4.27335 4.59413 4.05538C4.43065 3.8265 4.50694 3.54314 4.76851 3.34696C5.98916 2.45327 7.31881 1.78845 8.79013 1.39609C9.8582 1.11273 10.9481 0.992841 12.0597 0.992841C13.4221 0.992841 14.7735 1.00374 16.1359 0.981943C16.4192 0.981943 16.7135 0.927449 16.986 0.851158C17.8143 0.600488 18.6317 0.328021 19.46 0.0664517C19.994 -0.107928 20.4408 0.0664517 20.6697 0.524197C20.8332 0.851158 20.7678 1.17812 20.5934 1.48328C20.321 1.94103 20.2447 2.43147 20.4408 2.94371C20.5498 3.21618 20.7133 3.28157 20.964 3.13989C21.0621 3.08539 21.1711 3.02 21.2691 2.97641C21.498 2.87832 21.7051 2.93281 21.8686 3.10719C22.0212 3.28157 22.0538 3.47775 21.9558 3.69572C21.716 4.21886 21.7705 4.39324 22.2936 4.65481C22.468 4.74199 22.6424 4.84008 22.8168 4.91637C23.0892 5.03626 23.2091 5.22154 23.1982 5.5267C23.1873 5.96265 23.1982 6.3986 23.1982 6.83455C23.1982 7.1833 23.3072 7.47757 23.5143 7.76094C23.6996 8.0225 23.8194 8.32767 23.972 8.61103C23.972 8.78541 23.972 8.95979 23.972 9.12327C23.863 9.46113 23.7105 9.77719 23.4489 10.0497C22.6097 10.9543 21.7705 11.8806 20.9422 12.807C20.3863 13.4283 19.8523 14.0713 19.3074 14.7034C19.1003 14.9323 18.8932 14.9977 18.6861 14.8996C18.381 14.747 18.3265 14.4091 18.5772 14.1149C18.9368 13.6898 19.2965 13.2757 19.6561 12.8506C19.6888 12.807 19.7215 12.7634 19.7324 12.7416C19.2747 12.7416 18.8169 12.7307 18.3592 12.7525C18.272 12.7525 18.1521 12.8179 18.0976 12.8833C16.7026 14.5508 15.3185 16.2401 13.9234 17.9076C13.6945 18.1801 13.5311 18.3981 13.7708 18.7577C13.9016 18.943 13.9016 19.2155 13.967 19.477C14.5991 18.7359 15.2313 18.0057 15.8525 17.2864C15.9724 17.1447 16.0923 17.003 16.2339 16.8831C16.3974 16.7415 16.6263 16.7633 16.7898 16.9049C16.9533 17.0466 17.0077 17.2646 16.9097 17.4499C16.8661 17.5371 16.8007 17.6243 16.7353 17.7006C15.798 18.7904 14.8825 19.9021 13.9125 20.9593C13.5529 21.3516 13.4112 21.7331 13.4439 22.2562C13.4657 22.5505 13.4003 22.8774 13.2804 23.1608C13.0842 23.6512 12.6483 23.8801 12.1469 24C12.0488 24 11.9181 24 11.7982 24ZM13.4003 11.9678C13.4003 13.6789 13.4003 15.3682 13.4003 17.112C14.6754 15.5753 15.9288 14.0713 17.1821 12.5455C17.1167 12.5237 17.084 12.5128 17.0513 12.5019C16.2557 12.3166 15.4601 12.1313 14.6536 11.9569C14.2504 11.8588 13.8362 11.8588 13.4003 11.9678ZM17.7925 9.09058C17.8034 9.10148 17.8034 9.12327 17.8143 9.13417C18.3483 9.13417 18.8932 9.13417 19.4273 9.13417C21.1711 9.13417 20.8005 9.22136 22.3699 8.43666C22.4789 8.38216 22.5988 8.31677 22.7296 8.25138C22.2173 7.67375 22.2718 6.97623 22.2609 6.26781C20.7351 7.2269 19.2638 8.16419 17.7925 9.09058ZM12.4412 12.3384C12.1469 12.6109 11.8963 12.8397 11.6674 13.0904C11.5911 13.1776 11.5257 13.3193 11.5257 13.4283C11.5148 14.7361 11.5148 16.0439 11.5148 17.3627C11.5148 17.4281 11.5257 17.5044 11.5257 17.5589C11.8418 17.5589 12.136 17.5589 12.4412 17.5589C12.4412 15.8478 12.4412 14.1367 12.4412 12.3384ZM12.8989 20.5233C12.9425 20.1528 13.0079 19.7822 13.0079 19.4225C12.997 18.8885 12.5284 18.4635 11.9943 18.4635C11.4712 18.4635 11.0026 18.8776 10.9917 19.4116C10.9808 19.7822 11.0571 20.1528 11.0898 20.5233C11.7001 20.5233 12.2668 20.5233 12.8989 20.5233ZM11.4167 21.4824C11.4167 21.8421 11.4058 22.1799 11.4167 22.5069C11.4276 22.8229 11.6565 23.0409 11.9508 23.0627C12.2341 23.0845 12.4957 22.8665 12.5175 22.5614C12.5393 22.2126 12.5284 21.853 12.5284 21.4824C12.1578 21.4824 11.7982 21.4824 11.4167 21.4824ZM19.5145 3.23797C19.46 2.9764 19.4164 2.73663 19.3619 2.47506C19.1439 2.62765 18.9368 2.75843 18.7515 2.91101C18.7079 2.94371 18.6644 3.0527 18.6861 3.10719C18.7079 3.16168 18.7951 3.22708 18.8496 3.22708C19.0676 3.24887 19.2856 3.23797 19.5145 3.23797Z" fill="#541AA6"/>
<path d="M6.41421 7.51026C6.15264 7.51026 5.90197 7.51026 5.64041 7.51026C5.29165 7.51026 5.00828 7.36858 4.8666 7.04162C4.71402 6.70376 4.80121 6.4095 5.04098 6.13703C6.27253 4.7311 7.82015 3.8919 9.65113 3.58673C10.7628 3.39056 11.8745 3.20528 12.997 3.0091C13.3022 2.95461 13.5093 3.0527 13.6074 3.27067C13.7054 3.51044 13.6183 3.72842 13.3349 3.8919C11.4712 5.03626 9.61843 6.19152 7.75475 7.32499C7.58037 7.43397 7.3624 7.46667 7.15532 7.48847C6.91555 7.53206 6.65398 7.51026 6.41421 7.51026ZM10.7846 4.36054C8.88822 4.54582 7.23162 5.12345 5.91287 6.57298C6.35972 6.57298 6.74117 6.57298 7.13353 6.57298C7.18802 6.57298 7.25341 6.55118 7.30791 6.51848C8.45227 5.81007 9.59663 5.09075 10.7846 4.36054Z" fill="#541AA6"/>
<path d="M6.08725 12.5346C5.73849 12.5346 5.50962 12.4147 5.36794 12.164C5.22625 11.8915 5.21536 11.6082 5.42243 11.3793C5.6949 11.0741 5.97826 10.7908 6.28343 10.5292C7.94003 9.10148 9.8473 8.16419 11.9943 7.72824C12.4303 7.64105 12.8335 7.82633 13.0406 8.20778C13.2368 8.58924 13.1823 9.03608 12.8553 9.31945C12.3758 9.7445 11.8636 10.1586 11.3622 10.5619C11.2641 10.6382 11.1334 10.6927 11.0026 10.7363C9.46585 11.303 7.91823 11.8806 6.38152 12.4474C6.27253 12.491 6.15264 12.5128 6.08725 12.5346ZM12.1687 8.68733C10.207 9.04698 8.47407 9.88618 6.98095 11.194C7.03544 11.2049 7.07903 11.194 7.12263 11.1831C8.32149 10.7363 9.52034 10.3003 10.7192 9.85349C10.7737 9.83169 10.8282 9.82079 10.8609 9.77719C11.2968 9.41754 11.7328 9.04698 12.1687 8.68733Z" fill="#541AA6"/>
<path d="M13.6183 7.12881C13.4984 7.12881 13.2695 7.13971 13.0515 7.12881C12.6701 7.10701 12.3867 6.89994 12.2777 6.56208C12.1687 6.22422 12.2559 5.87546 12.5611 5.64659C13.5311 4.90548 14.5882 4.36054 15.8634 4.41503C16.125 4.42593 16.3756 4.41503 16.6372 4.41503C17.0513 4.42593 17.3674 4.65481 17.4764 5.00356C17.5854 5.36322 17.4764 5.71198 17.1276 5.96265C15.9397 6.79095 15.2749 7.1724 13.6183 7.12881ZM13.4548 6.18062C14.5555 6.30051 15.8852 5.89726 16.2448 5.37412C15.2204 5.26513 14.2831 5.5049 13.4548 6.18062Z" fill="#541AA6"/>
<path d="M2.76315 12.5673C1.98934 12.6 1.68418 12.2403 1.79316 11.7063C2.05473 10.333 2.85034 9.39574 4.11459 8.83991C4.37616 8.73092 4.62683 8.62193 4.88839 8.51295C5.28075 8.34947 5.61861 8.41486 5.84748 8.69822C6.06545 8.98159 6.06545 9.33035 5.81478 9.66821C5.32434 10.3221 4.8339 10.987 4.34346 11.63C3.87482 12.2185 3.26449 12.5346 2.76315 12.5673ZM4.63772 9.66821C3.73313 9.91888 2.81764 10.8998 2.81764 11.5864C3.12281 11.5101 3.36258 11.3466 3.54785 11.1068C3.89661 10.6382 4.25627 10.1695 4.63772 9.66821Z" fill="#541AA6"/>
<path d="M4.25627 4.81829C4.25627 5.07985 4.0165 5.33052 3.75493 5.34142C3.51516 5.35232 3.28629 5.13435 3.28629 4.88368C3.27539 4.62211 3.52606 4.37144 3.78763 4.36054C4.0492 4.36054 4.25627 4.56762 4.25627 4.81829Z" fill="#541AA6"/>
<path d="M17.7053 16.3273C17.4546 16.3273 17.2475 16.1202 17.2584 15.8587C17.2693 15.5862 17.4873 15.3682 17.7489 15.3791C17.9995 15.3791 18.2066 15.5971 18.2066 15.8478C18.2066 16.0984 17.9668 16.3273 17.7053 16.3273Z" fill="#541AA6"/>
</svg>
