<svg width="24" height="24" viewBox="0 0 24 24" fill="none" xmlns="http://www.w3.org/2000/svg">
<path d="M19.6018 0C19.8214 0.0422433 20.0411 0.0929352 20.2608 0.130954C20.4382 0.160525 20.5734 0.240787 20.6283 0.413984C20.6832 0.59563 20.6114 0.747706 20.4804 0.87866C19.7243 1.63482 18.9723 2.39519 18.2077 3.1429C18.081 3.26541 18.0599 3.36679 18.1148 3.52731C18.3007 4.05536 18.4696 4.59185 18.6597 5.11989C18.6893 5.20437 18.7822 5.30153 18.8667 5.3311C19.4032 5.5212 19.9482 5.69017 20.4846 5.87604C20.6283 5.92673 20.7212 5.90984 20.831 5.8C21.5703 5.04807 22.318 4.30882 23.0657 3.56111C23.2093 3.41748 23.3487 3.28653 23.5769 3.36257C23.8007 3.43438 23.843 3.62025 23.881 3.81879C24.3541 6.27735 23.0699 8.32193 21.1605 9.17947C20.3072 9.56388 19.4117 9.68639 18.4865 9.53431C18.3345 9.50896 18.2289 9.53009 18.1148 9.64414C17.4769 10.2947 16.8264 10.9368 16.1674 11.6C16.4335 11.8704 16.6954 12.128 16.9531 12.3857C17.2826 12.7152 17.2826 12.88 16.9616 13.2095C16.8264 13.3489 16.7208 13.4967 16.7757 13.7079C16.8517 13.9952 17.1643 14.1262 17.4262 13.9783C17.46 13.9572 17.4938 13.9361 17.5234 13.9107C18.0514 13.4883 18.0557 13.4883 18.5288 13.9614C20.0158 15.4484 21.4985 16.9311 22.9855 18.4139C23.4628 18.887 23.8134 19.4361 23.9317 20.0994C24.3541 22.4185 22.5968 23.9942 20.8437 23.9942C19.8975 23.9942 19.1117 23.6689 18.4485 23.0099C16.9024 21.4638 15.3563 19.9219 13.8102 18.3716C13.5314 18.0928 13.5356 17.9112 13.8018 17.6323C13.8651 17.5648 13.9327 17.4972 13.9792 17.4169C14.089 17.2353 14.0637 17.0494 13.92 16.9015C13.7722 16.741 13.5779 16.7114 13.3878 16.8213C13.2948 16.872 13.2188 16.9565 13.1385 17.0325C12.8935 17.2564 12.6992 17.2606 12.4669 17.0325C12.1838 16.7537 11.9093 16.4664 11.5502 16.1031C11.4868 16.213 11.4488 16.3144 11.377 16.3862C10.8109 16.9607 10.2449 17.531 9.67037 18.0928C9.54364 18.2153 9.50984 18.3294 9.53097 18.5026C9.77598 20.412 9.12121 21.9538 7.58355 23.1029C5.43337 24.7123 2.18486 24.0829 0.765483 21.8018C-0.9158 19.0897 0.288134 15.6849 3.29586 14.6457C4.01399 14.3965 4.75747 14.3374 5.5094 14.4683C5.65726 14.4937 5.76709 14.4726 5.88115 14.3543C8.69877 11.5282 11.5206 8.71057 14.3425 5.88871C14.4439 5.78733 14.4819 5.69862 14.4608 5.54232C14.0721 2.88522 15.7661 0.540714 18.419 0.0591406C18.533 0.038019 18.6471 0.0211216 18.7611 0C19.0399 0 19.323 0 19.6018 0ZM19.3694 0.844866C19.3525 0.823744 19.3525 0.811071 19.3483 0.811071C19.3187 0.806847 19.2849 0.802622 19.2554 0.802622C18.3091 0.794174 17.4431 1.06031 16.7165 1.66016C15.4746 2.68667 14.993 4.00889 15.293 5.60146C15.3394 5.8507 15.3225 6.04501 15.1324 6.23933C12.1627 9.20059 9.20147 12.1618 6.24021 15.1315C6.06279 15.309 5.88537 15.3343 5.64881 15.309C5.18413 15.2625 4.71101 15.1907 4.25478 15.2456C1.94407 15.5286 0.381069 17.7126 0.820399 19.9937C1.36956 22.824 4.65187 24.1716 7.03439 22.5452C8.38617 21.6201 9.0325 20.0149 8.69455 18.3927C8.63963 18.1224 8.69455 17.9238 8.89732 17.7211C11.8375 14.7894 14.7734 11.8535 17.7093 8.91333C17.9036 8.71902 18.0895 8.63875 18.3725 8.70212C20.7254 9.20481 22.8292 7.5869 23.1418 5.41137C23.1798 5.15791 23.1798 4.90022 23.1967 4.64676C23.0699 4.69745 23.0066 4.75237 22.9474 4.81574C22.3518 5.41137 21.7519 6.00277 21.1605 6.60685C20.9789 6.79272 20.793 6.83919 20.548 6.75048C19.8341 6.50124 19.116 6.26468 18.3978 6.03234C18.1782 5.96053 18.0388 5.8338 17.9669 5.61413C17.7304 4.88755 17.4938 4.16096 17.2446 3.44283C17.1601 3.19782 17.2108 3.01195 17.3967 2.83452C18.0092 2.23467 18.6133 1.62214 19.2174 1.01384C19.2765 0.950474 19.323 0.895558 19.3694 0.844866ZM19.1582 22.5833C20.303 21.4342 21.4394 20.3021 22.5546 19.1827C21.0338 17.6704 19.4962 16.1327 17.9501 14.5951C17.3671 14.9626 16.7757 14.933 16.3237 14.4937C15.8632 14.0459 15.8252 13.4672 16.2139 12.8124C16.0069 12.6054 15.7999 12.3942 15.5971 12.1914C14.465 13.3278 13.3329 14.4641 12.2219 15.5835C12.412 15.7779 12.619 15.9849 12.8302 16.2003C12.8724 16.175 12.9316 16.1327 12.9907 16.0989C13.4807 15.8243 14.0806 15.9088 14.4777 16.3059C14.8705 16.6945 14.9635 17.324 14.6762 17.7929C14.5748 17.9534 14.6002 18.0337 14.7269 18.1604C16.1463 19.5671 17.5572 20.9865 18.9681 22.3974C19.0399 22.4734 19.116 22.541 19.1582 22.5833ZM19.982 23.0395C20.7085 23.3774 21.8364 23.1367 22.4574 22.5114C23.2178 21.7426 23.3487 20.5936 23.0361 19.9853C22.0181 21.0034 20.9958 22.0257 19.982 23.0395Z" fill="#541AA6"/>
<path d="M2.12994 0C2.9917 0.498471 3.84502 1.00961 4.71945 1.48696C5.03628 1.66016 5.2306 1.8756 5.26862 2.23467C5.36155 3.05419 5.77131 3.66672 6.37117 4.23278C7.76942 5.55922 9.10853 6.94902 10.473 8.30926C10.5321 8.3684 10.6039 8.41909 10.6589 8.46556C10.4519 8.65987 10.2702 8.8373 10.0675 9.02739C10.0506 9.01049 9.98719 8.95558 9.92805 8.89644C8.30169 7.27007 6.6711 5.6437 5.04895 4.00889C4.918 3.87793 4.82084 3.69206 4.76592 3.51464C4.65187 3.15135 4.57583 2.77538 4.47867 2.40787C4.46177 2.34028 4.42375 2.25157 4.36884 2.21777C3.60846 1.77422 2.84385 1.33911 2.10037 0.916679C1.69906 1.31377 1.31465 1.69396 0.913335 2.09527C1.33577 2.83875 1.77087 3.60335 2.21443 4.36373C2.25245 4.4271 2.34538 4.46512 2.42142 4.48624C2.7129 4.5665 3.0086 4.65521 3.3043 4.7059C3.6507 4.76504 3.91261 4.93824 4.15762 5.18748C5.72485 6.76738 7.30052 8.33883 8.87197 9.91028C8.93111 9.96942 9.00715 10.0201 9.08741 10.0835C8.86775 10.282 8.67765 10.451 8.42419 10.6749C8.40307 10.6369 8.36505 10.5439 8.30169 10.4763C6.72179 8.88799 5.13766 7.30386 3.54932 5.72397C3.44371 5.62258 3.29586 5.54232 3.15645 5.50008C2.77626 5.38602 2.3834 5.31843 2.00321 5.19592C1.84691 5.14523 1.67794 5.02695 1.59768 4.89177C1.09076 4.03423 0.59651 3.1598 0.0980392 2.28536C-0.0498123 2.02768 -0.032915 1.8756 0.165628 1.67283C0.664099 1.16591 1.16679 0.667444 1.67371 0.164749C1.73708 0.101384 1.82157 0.0549163 1.89338 0C1.97364 0 2.04968 0 2.12994 0Z" fill="#541AA6"/>
<path d="M4.79549 21.5948C4.41953 21.5948 4.04779 21.5905 3.67182 21.5948C3.46061 21.599 3.31698 21.5103 3.21137 21.3329C2.83963 20.7077 2.46789 20.0867 2.09192 19.4657C1.97787 19.2798 1.97364 19.1066 2.0877 18.9165C2.46366 18.2956 2.83963 17.6746 3.20715 17.0494C3.31275 16.8677 3.46061 16.7875 3.6676 16.7875C4.4153 16.7917 5.16723 16.7917 5.91494 16.7875C6.1346 16.7875 6.27823 16.8804 6.38806 17.0663C6.74713 17.6788 7.11043 18.2871 7.48217 18.8912C7.6089 19.094 7.6089 19.2756 7.48217 19.4784C7.11043 20.0825 6.74713 20.6908 6.38806 21.3033C6.26556 21.5103 6.10503 21.5948 5.86847 21.5863C5.51785 21.5905 5.15456 21.5948 4.79549 21.5948ZM4.78704 20.7964C5.06163 20.7964 5.33621 20.8048 5.60656 20.7921C5.69105 20.7879 5.80088 20.733 5.84313 20.6654C6.12193 20.2219 6.39229 19.7741 6.64997 19.3221C6.68799 19.2587 6.68799 19.1404 6.6542 19.0771C6.39651 18.6251 6.12616 18.1731 5.84735 17.7337C5.80511 17.6661 5.69105 17.607 5.60656 17.607C5.07007 17.5943 4.52936 17.5943 3.98865 17.607C3.89994 17.6112 3.78165 17.6788 3.73519 17.7549C3.46483 18.1815 3.20292 18.6166 2.95369 19.0602C2.91144 19.132 2.91567 19.2714 2.95791 19.3432C3.20292 19.7783 3.47328 20.2007 3.71829 20.6316C3.79433 20.7668 3.88726 20.809 4.03511 20.8006C4.28435 20.7879 4.53358 20.7964 4.78704 20.7964Z" fill="#541AA6"/>
<path d="M7.85391 16.6481C7.69338 16.4833 7.52019 16.3059 7.36811 16.1496C10.2913 13.2264 13.2188 10.2989 16.1336 7.38835C16.2814 7.52775 16.4673 7.70095 16.6405 7.86148C13.7088 10.7974 10.7856 13.7206 7.85391 16.6481Z" fill="#541AA6"/>
<path d="M16.1547 16.6565C16.3195 16.5002 16.5011 16.327 16.6616 16.175C17.9712 17.4845 19.2976 18.8109 20.6283 20.1416C20.472 20.2895 20.2903 20.4669 20.1256 20.6274C18.8076 19.3136 17.4896 17.9914 16.1547 16.6565Z" fill="#541AA6"/>
</svg>
