<svg width="20" height="25" viewBox="0 0 20 25" fill="none" xmlns="http://www.w3.org/2000/svg">
<path d="M14.8951 5.63165C15.5278 5.63165 16.1188 5.6247 16.7167 5.63165C17.9751 5.65251 19.025 6.63978 19.1223 7.88431C19.171 8.46138 19.1918 9.0454 19.2197 9.62247C19.3518 12.4731 19.4908 15.3236 19.6229 18.1742C19.6855 19.5717 19.762 20.9622 19.8106 22.3597C19.8663 23.8546 18.7677 24.9878 17.2729 24.9948C12.3643 25.0017 7.45577 25.0017 2.54025 24.9948C1.04543 24.9948 -0.0600446 23.8546 0.0025293 22.3667C0.13463 19.4049 0.280635 16.45 0.419688 13.4951C0.496168 11.8473 0.565694 10.1995 0.649126 8.55871C0.663031 8.21108 0.676937 7.86345 0.753416 7.52277C0.996759 6.43816 1.98404 5.64555 3.10341 5.6247C3.69439 5.61774 4.28536 5.6247 4.91805 5.6247C4.80681 3.66405 5.45341 2.04408 7.08033 0.889939C8.02589 0.222485 9.0966 -0.0695265 10.2507 0.0139053C11.6691 0.118195 12.8441 0.723076 13.7618 1.81464C14.6726 2.91316 14.9855 4.1994 14.8951 5.63165ZM9.91006 23.3331C12.3504 23.3331 14.7839 23.3331 17.2242 23.3331C17.8361 23.3331 18.1698 22.9855 18.149 22.3736C18.142 22.1025 18.1281 21.8383 18.1211 21.5671C17.989 18.7513 17.8569 15.9355 17.7248 13.1197C17.6484 11.4649 17.5719 9.81019 17.4884 8.15546C17.4537 7.55753 17.1269 7.26552 16.529 7.26552C15.2288 7.27247 13.9287 7.27943 12.6285 7.27943C9.51376 7.28638 6.39897 7.29333 3.28418 7.30028C2.70016 7.30028 2.38729 7.58534 2.34557 8.17632C2.30386 8.85073 2.283 9.52513 2.24824 10.2065C2.06051 14.246 1.86584 18.2855 1.67812 22.325C1.64336 23.0133 1.96318 23.3401 2.65149 23.3401C5.06406 23.3331 7.49054 23.3331 9.91006 23.3331ZM6.59364 5.61079C8.81849 5.61079 11.0225 5.61079 13.2265 5.61079C13.3447 4.1855 12.9275 2.99659 11.7038 2.21094C10.5567 1.48092 9.34689 1.46701 8.19275 2.16923C6.91347 2.93402 6.4685 4.14378 6.59364 5.61079Z" fill="#6526BF"/>
<path d="M9.91006 14.0165C7.57397 14.0096 5.5716 12.4313 5.03625 10.1648C4.93196 9.71286 5.06406 9.35132 5.41865 9.15664C5.75237 8.96892 6.2043 9.02454 6.44069 9.3096C6.55888 9.44866 6.62841 9.63638 6.68403 9.81715C7.05947 11.1451 7.89379 11.9933 9.2426 12.3062C10.9391 12.6955 12.6772 11.6318 13.1361 9.9562C13.1569 9.87972 13.1709 9.80324 13.1917 9.72676C13.3238 9.22617 13.7479 8.95502 14.2346 9.06626C14.6865 9.17055 14.9507 9.62247 14.8256 10.1161C14.4084 11.7987 13.4072 12.9806 11.8081 13.6481C11.2033 13.9123 10.5706 14.0235 9.91006 14.0165Z" fill="#6526BF"/>
</svg>
