<svg width="25" height="25" viewBox="0 0 25 25" fill="none" xmlns="http://www.w3.org/2000/svg">
<g clip-path="url(#clip0_110_2732)">
<path d="M12.6128 4.78604C13.004 4.35365 13.3472 3.85948 13.7864 3.49572C15.6258 1.97891 17.7192 1.60142 19.9498 2.41817C22.1735 3.23491 23.5119 4.889 23.91 7.22942C24.26 9.26786 23.6972 11.0867 22.249 12.5623C19.4007 15.4655 16.5043 18.3276 13.6286 21.2033C13.457 21.3749 13.2922 21.5465 13.1207 21.7112C12.7226 22.0956 12.2627 22.0956 11.8715 21.7044C10.8008 20.6405 9.737 19.5767 8.67317 18.506C6.74455 16.5774 4.82279 14.6556 2.89417 12.727C1.61757 11.4504 0.972411 9.90615 0.999864 8.08735C1.04791 5.03313 3.38833 2.43876 6.42883 2.08186C8.41236 1.8485 10.1282 2.43189 11.5764 3.80458C11.8852 4.0997 12.1735 4.41542 12.4686 4.72427C12.5167 4.74486 12.5647 4.76545 12.6128 4.78604ZM12.5373 20.0228C12.6196 19.9199 12.6745 19.8375 12.75 19.762C14.0472 18.458 15.3513 17.1608 16.6553 15.8567C18.1378 14.3742 19.634 12.9055 21.096 11.4024C22.1666 10.2974 22.5785 8.94528 22.2902 7.43532C21.9539 5.6577 20.8969 4.43601 19.1605 3.8938C17.424 3.35159 15.866 3.77026 14.5483 5.0194C14.0678 5.47239 13.6148 5.95283 13.1481 6.41268C12.7363 6.81762 12.2833 6.81762 11.8647 6.40581C11.3636 5.91165 10.8763 5.40375 10.3684 4.92331C8.68689 3.32414 6.03075 3.24864 4.27372 4.738C2.20096 6.49504 2.07742 9.56298 4.00604 11.4985C6.77886 14.285 9.55855 17.0578 12.3382 19.8375C12.3863 19.8924 12.4343 19.9336 12.5373 20.0228Z" fill="#6526BF"/>
</g>
<defs>
<clipPath id="clip0_110_2732">
<rect width="23.0062" height="20" fill="#6526BF" transform="translate(1 2)"/>
</clipPath>
</defs>
</svg>
