<svg width="25" height="25" viewBox="0 0 25 25" fill="none" xmlns="http://www.w3.org/2000/svg">
<path d="M24.2925 18.3503L20.8027 14.8606C19.5567 13.6146 17.4395 14.1111 16.9382 15.7318C16.5635 16.8513 15.3175 17.4742 14.198 17.226C11.7061 16.603 8.34286 13.3615 7.71987 10.7479C7.3451 9.62842 8.09464 8.38243 9.21408 8.00766C10.8348 7.51121 11.3313 5.38914 10.0853 4.14315L6.59556 0.653413C5.59779 -0.217805 4.10358 -0.217805 3.23236 0.653413L0.866933 3.02371C-1.4985 5.51569 1.12002 12.1204 6.97519 17.9756C12.8304 23.8307 19.4351 26.5709 21.927 24.079L24.2925 21.7135C25.1637 20.7158 25.1637 19.2216 24.2925 18.3503Z" fill="white"/>
</svg>
