<svg width="25" height="19" viewBox="0 0 25 19" fill="none" xmlns="http://www.w3.org/2000/svg">
<g clip-path="url(#clip0_48_5270)">
<path d="M0 10.1676C0.182149 9.94067 0.273224 9.66833 0.500911 9.48676C0.910747 9.07824 1.54827 9.07824 2.00364 9.44137C2.09472 9.53215 2.18579 9.62293 2.27687 9.71372C4.05282 11.484 5.87432 13.2996 7.65027 15.0699C7.74135 15.1607 7.78688 15.2061 7.87796 15.3422C7.96903 15.2061 8.01457 15.1153 8.10565 15.0699C12.9781 10.213 17.8506 5.35615 22.7231 0.499289C23.0874 0.136159 23.4973 -0.0907974 24.0437 0.0453764C24.9089 0.272333 25.2277 1.31633 24.6812 1.9972C24.6357 2.08798 24.5902 2.17877 24.4991 2.26955C19.3078 7.44415 14.1166 12.6188 8.92532 17.7934C8.37887 18.3381 7.83242 18.4288 7.28597 18.1111C7.14936 18.0203 7.01275 17.9295 6.92168 17.7934C4.73588 15.7054 2.59563 13.572 0.455373 11.3932C0.273224 11.1662 0.136612 10.8939 0 10.6215C0 10.4854 0 10.3492 0 10.1676Z" fill="#6E35BF"/>
</g>
<defs>
<clipPath id="clip0_48_5270">
<rect width="25" height="18.2927" fill="white"/>
</clipPath>
</defs>
</svg>
