<svg width="20" height="14" viewBox="0 0 20 14" fill="none" xmlns="http://www.w3.org/2000/svg">
<path d="M6.98415 10.1087C7.14649 9.90002 7.23152 9.76861 7.33974 9.66039C10.3546 6.63785 13.3771 3.62303 16.3919 0.608224C16.8403 0.159867 17.335 -0.0875016 17.9843 0.0284527C19.2135 0.260361 19.7469 1.68273 18.9738 2.66448C18.8811 2.78816 18.7651 2.88866 18.6569 3.00461C15.2246 6.43686 11.7847 9.87683 8.35241 13.3091C7.42478 14.2367 6.55125 14.229 5.61589 13.2936C3.91523 11.593 2.21456 9.90003 0.521631 8.19163C-0.406003 7.25627 -0.0426795 5.76432 1.18644 5.41646C1.83578 5.23093 2.40009 5.41646 2.87164 5.89574C4.1394 7.17124 5.4149 8.439 6.6904 9.7145C6.7677 9.79953 6.83727 9.91549 6.98415 10.1087Z" fill="#FFF200"/>
</svg>
