<svg width="21" height="26" viewBox="0 0 21 26" fill="none" xmlns="http://www.w3.org/2000/svg">
<path d="M4.48226 25.0238C4.08226 24.9238 3.78226 24.8238 3.48226 24.6238C2.48226 24.0238 1.88226 23.0238 1.98226 21.9238C1.98226 17.2238 1.98226 12.5238 1.98226 7.82384C1.98226 7.62384 1.88228 7.42384 1.68228 7.32384C0.782277 6.92384 0.182289 6.02384 0.382289 5.02384C0.482289 4.02384 1.28225 3.22384 2.28225 3.12384C3.28225 3.02384 4.28225 3.12384 5.28225 3.12384C5.38225 3.12384 5.48224 3.12384 5.58224 3.12384C5.58224 2.72384 5.58228 2.42384 5.68228 2.12384C5.78228 0.923839 6.78226 0.123839 7.98226 0.123839C9.68227 0.123839 11.3822 0.123839 13.0822 0.123839C14.3822 0.0238386 15.4823 1.02384 15.4823 2.32384C15.4823 2.42384 15.4823 2.42384 15.4823 2.52384C15.4823 2.72384 15.4823 2.92384 15.4823 3.12384H15.7823C16.6823 3.12384 17.5823 3.12384 18.3823 3.12384C19.3823 3.12384 20.1822 3.62384 20.5822 4.52384C21.0822 5.62384 20.4823 6.92384 19.3823 7.42384C19.1823 7.42384 19.0823 7.62384 19.1823 7.82384C19.1823 12.5238 19.1823 17.2238 19.1823 21.9238C19.1823 22.9238 18.7823 23.9238 17.8823 24.6238C17.5823 24.9238 17.1823 25.0238 16.6823 25.1238H16.5822L4.48226 25.0238ZM3.08224 7.52384V7.82384C3.08224 12.4238 3.08224 16.9238 3.08224 21.5238C3.08224 21.7238 3.08224 22.0238 3.08224 22.2238C3.18224 23.1238 3.98229 23.9238 4.88229 23.9238C8.58229 23.9238 12.1823 23.9238 15.8823 23.9238C16.5823 23.9238 17.2823 23.5238 17.4823 22.8238C17.5823 22.5238 17.6823 22.1238 17.6823 21.7238C17.6823 17.1238 17.6823 12.4238 17.6823 7.82384V7.52384H3.08224ZM10.3823 6.32384H18.0822C18.1822 6.32384 18.2823 6.32384 18.3823 6.32384C18.8823 6.32384 19.2823 5.92384 19.3823 5.42384C19.4823 4.92384 19.0822 4.42384 18.5822 4.32384C18.3822 4.32384 18.2822 4.32384 18.0822 4.32384C12.8822 4.32384 7.78224 4.32384 2.58224 4.32384C2.48224 4.32384 2.38225 4.32384 2.28225 4.32384C1.78225 4.32384 1.38229 4.72384 1.38229 5.22384C1.28229 5.72384 1.58224 6.12384 2.08224 6.32384C2.28224 6.32384 2.48228 6.42384 2.68228 6.42384C5.28228 6.32384 7.78229 6.32384 10.3823 6.32384ZM6.68228 3.02384H14.1823C14.1823 2.72384 14.1823 2.52384 14.1823 2.32384C14.1823 1.72384 13.6822 1.22384 13.0822 1.22384C11.3822 1.22384 9.58229 1.22384 7.88229 1.22384C7.28229 1.22384 6.78225 1.62384 6.78225 2.22384C6.68225 2.52384 6.68228 2.72384 6.68228 3.02384Z" fill="#9F9F9F"/>
<path d="M13.2822 15.2238C13.2822 13.4238 13.2822 11.7238 13.2822 9.92384C13.2822 9.82384 13.2822 9.72383 13.2822 9.52383C13.2822 9.22383 13.5822 9.02383 13.7822 9.02383C14.0822 9.02383 14.2823 9.22384 14.3823 9.42384C14.3823 9.52384 14.3823 9.62383 14.3823 9.72383C14.3823 13.3238 14.3823 16.9238 14.3823 20.4238C14.3823 20.6238 14.2823 20.9238 14.1823 21.0238C13.9823 21.2238 13.5823 21.2238 13.3823 20.9238C13.2823 20.8238 13.2822 20.7238 13.2822 20.6238C13.2822 20.5238 13.2822 20.4238 13.2822 20.2238C13.2822 18.7238 13.2822 16.9238 13.2822 15.2238Z" fill="#9F9F9F"/>
<path d="M7.58179 15.2238C7.58179 17.0238 7.58179 18.8238 7.58179 20.6238C7.58179 20.8238 7.58181 20.9238 7.48181 21.1238C7.38181 21.3238 7.18184 21.4238 6.88184 21.4238C6.68184 21.4238 6.48184 21.2238 6.38184 21.0238C6.38184 20.9238 6.38184 20.8238 6.38184 20.7238C6.38184 17.1238 6.38184 13.5238 6.38184 9.92384C6.38184 9.52384 6.58184 9.32384 6.88184 9.22384C7.18184 9.12384 7.48179 9.32384 7.58179 9.62384C7.58179 9.62384 7.58179 9.62384 7.58179 9.72384C7.58179 9.82384 7.58179 9.92384 7.58179 10.0238C7.58179 11.6238 7.58179 13.4238 7.58179 15.2238Z" fill="#9F9F9F"/>
<path d="M9.78223 15.2238C9.78223 13.4238 9.78223 11.7238 9.78223 9.92384C9.78223 9.82384 9.78223 9.72384 9.78223 9.62384C9.78223 9.32384 10.0822 9.12384 10.2822 9.12384C10.5822 9.12384 10.7823 9.22384 10.8823 9.52384C10.8823 9.62384 10.8823 9.82384 10.8823 9.92384C10.8823 13.5238 10.8823 17.0238 10.8823 20.6238C10.8823 20.7238 10.8823 20.8238 10.8823 20.9238C10.7823 21.2238 10.5822 21.4238 10.2822 21.4238C9.98223 21.4238 9.78223 21.2238 9.78223 20.9238C9.78223 20.8238 9.78223 20.7238 9.78223 20.6238C9.78223 18.7238 9.78223 17.0238 9.78223 15.2238Z" fill="#9F9F9F"/>
</svg>
