<svg width="9" height="9" viewBox="0 0 9 9" fill="none" xmlns="http://www.w3.org/2000/svg">
<path d="M8.30002 1.40009C8.30002 1.70009 8.20002 1.90009 8.00002 2.10009C7.20002 2.90009 6.50002 3.60008 5.70002 4.40008C5.60002 4.50008 5.60002 4.60008 5.70002 4.70008C6.50002 5.50008 7.30002 6.30008 8.20002 7.20008C8.40002 7.40008 8.50002 7.70008 8.40002 8.00008C8.30002 8.30009 8.10002 8.50008 7.80002 8.50008C7.50002 8.60009 7.30002 8.40008 7.10002 8.20008C6.30002 7.40008 5.50002 6.60009 4.70002 5.80009C4.60002 5.70009 4.50002 5.70009 4.40002 5.80009C3.50002 6.50008 2.80002 7.30009 2.00002 8.00008C1.70002 8.30009 1.40002 8.30008 1.10002 8.20008C0.800021 8.10008 0.700021 7.80008 0.700021 7.40008C0.700021 7.20008 0.800022 7.00008 1.00002 6.90008C1.80002 6.10008 2.50002 5.40009 3.30002 4.60009C3.40002 4.50009 3.40002 4.40009 3.30002 4.30009C2.40002 3.50009 1.60002 2.70009 0.800022 1.90009C0.600022 1.60009 0.500021 1.40008 0.600021 1.10008C0.700021 0.800085 0.900021 0.600085 1.20002 0.600085C1.50002 0.500085 1.70002 0.700085 1.90002 0.900085C2.70002 1.70009 3.50002 2.50009 4.30002 3.30009C4.40002 3.40009 4.50002 3.40009 4.60002 3.30009C5.40002 2.50009 6.10002 1.70009 6.90002 1.00009C7.10002 0.800085 7.40002 0.700085 7.70002 0.800085C8.10002 0.900085 8.20002 1.10009 8.30002 1.40009Z" fill="#373737"/>
</svg>
